<mxfile host="www.draw.io" modified="2019-10-16T20:58:14.442Z" agent="Mozilla/5.0 (Macintosh; Intel Mac OS X 10_14_5) AppleWebKit/537.36 (KHTML, like Gecko) Chrome/77.0.3865.90 Safari/537.36" etag="rHDTOe4zZy1R1GLe42J7" version="12.1.2" type="github" pages="1">
  <diagram name="Page-1" id="5348f1db-0dfa-24cf-5d06-2057accb5106">
    <mxGraphModel dx="2004" dy="1131" grid="1" gridSize="10" guides="1" tooltips="1" connect="1" arrows="1" fold="1" page="1" pageScale="1.5" pageWidth="826" pageHeight="1169" background="#ffffff" math="0" shadow="0">
      <root>
        <mxCell id="0" style=";html=1;"/>
        <mxCell id="1" style=";html=1;" parent="0"/>
        <mxCell id="QkHlyFgoPhqj8zgjdgaY-13" value="" style="shape=image;verticalLabelPosition=bottom;labelBackgroundColor=#ffffff;verticalAlign=top;aspect=fixed;imageAspect=0;image=data:image/png,iVBORw0KGgoAAAANSUhEUgAAAqYAAAKmCAYAAACfe1yfAAAAAXNSR0IArs4c6QAAAAlwSFlzAAAuIwAALiMBeKU/dgAAAVlpVFh0WE1MOmNvbS5hZG9iZS54bXAAAAAAADx4OnhtcG1ldGEgeG1sbnM6eD0iYWRvYmU6bnM6bWV0YS8iIHg6eG1wdGs9IlhNUCBDb3JlIDUuNC4wIj4KICAgPHJkZjpSREYgeG1sbnM6cmRmPSJodHRwOi8vd3d3LnczLm9yZy8xOTk5LzAyLzIyLXJkZi1zeW50YXgtbnMjIj4KICAgICAgPHJkZjpEZXNjcmlwdGlvbiByZGY6YWJvdXQ9IiIKICAgICAgICAgICAgeG1sbnM6dGlmZj0iaHR0cDovL25zLmFkb2JlLmNvbS90aWZmLzEuMC8iPgogICAgICAgICA8dGlmZjpPcmllbnRhdGlvbj4xPC90aWZmOk9yaWVudGF0aW9uPgogICAgICA8L3JkZjpEZXNjcmlwdGlvbj4KICAgPC9yZGY6UkRGPgo8L3g6eG1wbWV0YT4KTMInWQAAQABJREFUeAHsnQmYXFWV+N9571VVb0lvtXSiRAFhohlEFMRtohFxHRWN4L4xQ6o7CQkJhEAIUIQQCIEkJOml4rg7OoI4jo7Lf5BhRMcVZVyiKAIKmvSeTtJbVb1653+qEQ2huruq+t1Tbznv+/Kl+y5n+d2qrlPv3XMuaHIJASEgBISAECiRQEvn+ElhI3yurcMLNFs7GXSI0dQQ/dPp35iG2Ieg/Zn+/0Umm/v5kUtrHytRtAwTAkJACGggDISAEBACQkAIzESgpSf38pChv0dDeIumwakzjX1GH+KjGuA3bLS/OJAMfe8Z/dIgBISAEDiOgASmx8GQH4WAEBACQuAvBNIPhBLaiz6sgX4ZBaNLnOGCv0Yb9/b3PvQJLbUk64xMkSIEhICfCEhg6qfVFF+EgBAQAg4QiKetCyggvRU0OM0BcUVE4B/Qtq/vbzc/S51YZIA0CQEhEFACEpgGdOHFbSEgBITAiQQauo/F6436j9Ed0red2Kfkd8R7J/PZFUdW1jyqRL4IFQJCwHMEJDD13JKJwUJACAgB5wm09uTOM3XjXykoTTgvfQaJiCN5zf7AYNL8+gyjpEsICIGAEChkUcolBISAEBACASYQ229dTEHpN9mD0gJzgCYD9K9G0/nLA7wE4roQEAJ/ISCBqbwUhIAQEAIBJpDYn1+ra8bHKUIslHyq0gU6Bae3tfXkb6iSAaJWCAgBlxCQR/kuWQgxQwgIASHATSCRtv6Zkpz2F25bcuueTl8e7SsGk8bt0/VLuxAQAv4m4Jo/Rv7GLN4JASEgBNxFINaV+wfdNO6t7p3SYkyooBTay/uT5leK9UqbEBAC/iYggam/11e8EwJCQAg8g0Csc7RNN+sepBulbc/odEMDJURltcyZh5O1j7vBHLFBCAgBPgKyx5SPtWgSAkJACLiCgB6u2+PaoLRAiBKiQnrks1oqJZ9RrnjFiBFCgI+A3DHlYy2ahIAQEAJVJxDtsd5q6MZXq25ICQagnf8wFeH/TAlDZYgQEAI+ISDfRn2ykOKGEBACQmBWAnQH0tD1m2cd55YBun6Tlj5Y5xZzxA4hIATUE5DAVD1j0SAEhIAQcAWB6ILN76Hn5A6de6/eJToS9dkJLbFCvSbRIASEgFsISGDqlpUQO4SAEBACiglQrdA1ilU4Lx5gjew1dR6rSBQCbiUge0zdujJilxDwIYF5+4621pp1bwIDztHycIqmaw3k5riG+CdNw5/ks5lvDF5af9CHrlfdpVhn9kV6KPRg1Q2pwICcbb1+uD10TwVTZYoQEAIeI2B6zF4xVwgIAQ8SiHZN/p0RCl2n2fAuyrgOa0hOHP+85sn67iuMSG0+kba/YdvW9QMdYU8GUW5dHt0wLnKrbbPZFTL0gu0SmM4GSvqFgA8IHP/R4AN3xAUhIARcRYCSbRLp/CbDDP9SQ/19U0HpjAaCQWPeqhvmT+h4yh3anocjMw6XztIJ6PDm0ge7bKTtYdtdhlLMEQJuJyCP8t2+QmKfEPAqgdSBcHzh8z9PCSzLK3cB78viyDsOJ1uOVC5DZs5LH43WQUO/m44eLXdV8lZm8eDKmt+WO0/GCwEh4C0CcsfUW+sl1goBrxCAxMLFn5pbUFpwFZaFtaa7tfQDIa847kY7Q1h7lpeD0immYJ7tRrZikxAQAs4SkMDUWZ4iTQgIASLQls6vok2k73UEBsB5CTzrBkdkBVSIDvoLve66Ad4pc+V11mK/EKgmAQlMq0lfdAsBHxJo7R5/FgI4W8Rdhw3xnuyZPsTF4pIB2rNYFKlUYmjPUSleZAsBIeAOAhKYumMdxAoh4BsCJkS202PjQhkoBy8wQTd3OygwWKJAS3jeYYSo530QB4SAEJiVgASmsyKSAUJACJRKoKUn93JNh/eVOr68cfCaeLc1h0Sq8rT5ajSCH471DPtqTcQZISAEihKQwLQoFmkUAkKgbAJUGiqkG3RX88mipGXPL2ECGPoOLfVYTQlDZchxBBA1+7hfPfkjwtMq33rSBzFaCAiB2QlIYDo7IxkhBIRACQTaFmz+IAWlLy1h6ByGwMmJBYsun4OAQE4FwKwPHB/3gQ/ighAQArMQkMB0FkDSLQSEwOwEotsH5tmgO5vwNJ1agKuie8cWTtct7UUJDBZt9VQj9nnKXDFWCAiBighIYFoRNpkkBITA8QSMppZNVLN0wfFt6n6GBjNSc4s6+f6TnEftD173ik6D+ZPXfRD7hYAQmJ2ABKazM5IRQkAIzEAgnp48lbaVrpthiONdqMEHWrqyL3NcsE8FQh5/7XXXbAt/4XUfxH4hIARmJyCB6eyMZIQQEAIzEAAM76C9pcxn2gOEzKnyUXKs8gxr81TXhDXxgKZRCpSXL7Ae9LL5YrsQEAKlEZDAtDROMkoICIEiBFp7cudReah3FOliaIJz4z0WJVzJNRuB0TXzBmjMr2Yb595+fHygveZh99onlgkBIeAUAQlMnSIpcoRA0Aik7jNN3dhVTbeBEq5inf0OF/OvpkcKddv4nwqlKxUNGn5DqQIRLgSEgGsISGDqmqUQQ4SAtwi0tS1dQY/wz6iq1QALdbP16qra4BHlqOW/6BFTn2Gmlbc9a/sznJEGISAEZiQg+7NmxCOdQkAIFCPQ2DXSXBOa/7CG0Fqsn7cNJyczmRccubT2MV693tOW+Jj9E1qzs71kOSL+tj+pP59s9vYeWS9BF1uFQBUJyB3TKsIX1ULAqwRqQvNS7ghKCwShJhKJUAKWXLMRyNt2VbdezGZfsX4dcQ+1S1BaDI60CQEfEpDA1IeLKi4JAZUEWnoyL6CgtEOljnJlUw3V5dF0blm584I2fvDQd++kGO8hz/iN+Mfe3of+xTP2iqFCQAjMmYAEpnNGKAKEQLAImFpoJ92lDLnNawMoEevCOw232eUqe1LLLC1v0/p540K0N2upJX44TtUbwMVKIeACAhKYumARxAQh4BUC0R7rraDDG9xpL5wZP2/5Je60zTVWARr6h1xjzYyG4H/1t5ufm3GIdAoBIeA7AhKY+m5JxSEhoIhA6kBY1/XbFUl3RCwAbGnadbjJEWE+FBLrsS6ibQ+vcr9rOJzJZ5Lut1MsFAJCwGkCEpg6TVTkCQGfEogvXLyGgprTXO0eQCxSN/96V9tYLePSB+voi8Wt1VJful60bTv//pGO2j+UPkdGCgEh4BcCEpj6ZSXFDyGgkED97tEEIFyrUIVzogFWtXZmCuWF5DqOQFxLbKC9wYuOa3LljzbiuoH20LdcaZwYJQSEgHICEpgqRywKhID3CTTU1d6kAcz3hicQMsKFBC25niLQ0jl+Em1zuPKp3137v21fO5A0CuWh5BICQiCgBCQwDejCi9tCoFQC0XT2xXSn7aOljnfDOLq7+8Zo2nqLG2xxgw2hUGQ7rWGdG2wpbgPmbbTX9rUbW4v3S6sQEAJBISCBaVBWWvwUApURoCR88w4Kajz3t8IEfadGCVuVue2fWfHu3Ctp/d7jXo9wmEpYXSB3St27QmKZEOAk4LkPG044oksIBJ2Ad7K4n7lSqMHp8bbFq5/ZE6CWVEoH3Sh8sXDp8dN4j5WffGFfh/mfAVoVcVUICIEZCLj0j9UMFkuXEBACPAQoizsBbb+hoMb1CTPTA8EjY/mx00c75vVPP8a/PbH91sW6ZnzcdR4iPgpob+xtN+8m2+S4UdctkBgkBKpHQO6YVo+9aBYCribglSzumSFCYz3UBXLfYsueofm6pm+bmQ93Lz5ExaA6+jKPvICC0i+RdglKuZdA9AkBlxOQO6YuXyAxTwhUg0AhizsUqqEz1d2cMFMqGUqsyVvnDHSEHyx1hh/Gxffnt4OmVz8Tn+6OaoBfp1X4Yn9H6PvEVoJRP7zAxAchoIiAqUiuiBUCQsDDBNyfxV0OXDDANHfTjFeXM8vLY2Odk8+jwxDW8vmA/QjazzRbG9eBfkbtT4j4mzxmfzTUUfdnPjtEkxAQAl4nIHdMvb6CYr8QcJhAIYsbDOO77k2YqcxhG/MXDSTNuyqb7a1Zif32f9D6vY3L6ryVf/vgSvOrXPpEjxAQAv4lIHtM/bu24pkQKJ+A67O4y3fpqRm033KHtvOJ2qd+9+v/LT258zmDUnoyf48EpX59NYlfQoCfgASm/MxFoxBwLYHYws0focpCL+EzEPmy5QGeE69feAWfb1XQlLrPDOnGLj7NaOWyuXV8+kSTEBACficgganfV1j8EwIlEmDP4kY8OmllX44a/qlEE+c8jPZdbmzZM/7sOQtyqYC2BUvb6W7pEj7zsGd4deQAnz7RJASEgN8JSGDq9xUW/4RAiQTMmqZrKKhJlDh8zsNAw5uOrKx5lI6i3DhnYaUKAKgPhSO3lDrcS+Pm7TvaigA3sNkMODQxOno9mz5RJASEQCAISGAaiGUWJ4XAzAS4s7gpY/v3vZlH6UQiTRtMml+gfYqFMkI8lw7vi3fmXsGjjE9LbaieglJo4dIINl5/dH3jMJc+0SMEhEAwCEhgGox1Fi+FwIwE9FD4dgpqIjMOcrDTztuXa2tOy/xFJG1UtC6j4NR2UMUMogAgZOzWKNFrhkGe6mrZl1lCXiX5jMYDvYfuT/PpE01CQAgEhYBv/jAHZcHETyHgNAE3ZHEPrQr/BG38jNO+TS8PzmlLbP7Q9P3e6gmFQnT3GdjqUufs/DottczyFiWxVggIAS8QkMDUC6skNgoBVQRclMVtw+QmSoQ6psrVE+Xahr4tun1g3ontXvu9tcd6O1VSOI/PbvyP4fbQPXz6RJMQEAJBIiCBaZBWW3wVAicQiLUt7aA7ba7I4h5M1h/SbbzpBBOV/UoZ+guMppZNyhRwCN7zcMTUddqGwXVhBjF7OZc20SMEhEDwCEhgGrw1F4+FwBSBQha3rkOKDUcJWdy92Ufp6FB8hM8mWBdPT57Kps9hRW3hU2hvLjDaj7v7kzV86+MwLxEnBISA+wlIYOr+NRILhYASAq7M4qaEKESbsQg+RADCtykBrFhorHO0zdaBSnwxXYi9+cPDbHe0mbwSNUJACLiMgASmLlsQMUcIcBBo7s78vVuzuPuT5lc0xHs5ODypAy5o7ckx7tF0xjPdrN1G2xHY9shSvdlNgxtjbHuAnaEkUoSAEPAaAQlMvbZiYq8QcIBAWA/RI3P3ZnFntcIxl8iW9W0WjvGkRDAH0LKIiPZkz6aEpw+zKCsoAXxgoHfrp9n0iSIhIAQCS0AC08AuvTgeVALxtHWB27O4Dycjv6Qi/Ix1MuGMtralKzzymgBDNwvloZj+ftNKZPNrqe4rU51Zj6yCmCkEhIASAkx/2JTYLkKFgBAolwBlcQPojHsqK8/insiN0XGXyHayEBqwpbFrpLlcpNzjo2nrvRSU8p1cBfiF/lUhvpO5uIGKPiEgBFxFQAJTVy2HGCME1BLwUhb3sdXzh2wbU2qJHCcdobXGnMd31vxxqkv+MX2wztD0W0oeP+eBOJ7LZq6asxgRIASEgBAokYAEpiWCkmFCwOsEoumxBV7L4h7ovb+b7poe4GMPHS09mRfw6StPUxsmNtI2jJPKm1X5aDrwYPvwqronKpcgM4WAEBAC5RGQwLQ8XjJaCHiWgI413svipmMvp46/ZKMOZkgP7WJTV4ai5vTEItRhQxlT5jgUH+8fPbhjjkJkuhAQAkKgLAISmJaFSwYLAW8SKGRxgw58Z8M7mMX95PGX+FU+8vD6aI/1Vj59pWkKY5iCRKgtbfTcR9l5e4O2/qSJuUsSCUJACAiB0glIYFo6KxkpBLxKwPNZ3HaucAwmZrgWQC8c85k6EObSN5ueWFfuHzQdLpxtnFP9aON3BzrMu5ySJ3KEgBAQAqUSkMC0VFIyTgh4lIAfsrgHVtX8nooW7eFaAipcf1rbgsVrufTNqOfCOw0wjEJ5KJhxnGOdmEe0Cr6jYyJFkBAQAkKgRAISmJYISoYJAU8S2NFbr4O+nc92dVncVmZkK8VKfVy+oAab63ePJrj0Tacn8bp3fpRO6Tprun7H2wE/OdARftBxuSJQCAgBIVACAQlMS4AkQ4SAVwm0NcU20t2/Z3PZrzKLe3hN61Fbszdx+UI3KOc31NVW9Wz45vRwI9XRZ7QBj4xZ49ewMRZFQkAICIETCEhgegIQ+VUI+IVA076J5yDCFXz+qM/iHji49VMa4k/5fIKPRtPZF/Ppe7qmiN54LT3Cjz+9Vd1v9Az/xtGOef3qNIhkISAEhMDMBCQwnZmP9AoBzxKImOFbfZfFTcdi2lr+Mnqkz7T/EXQdCsd/akz7O//2covumzwdbbj0by1qfwINfzd46KG9arWIdCEgBITAzAQkMJ2Zj/QKAU8SiPXklmq6fhGX8Qh4P2Vx38mhbyAZ+h4Fpv/Goaugg7ZCvCqx33o3l76n9Bhm+HbaTsBWGQDz9uVaakn2Kf3yvxAQAkKgGgQkMK0GddEpBFQSKGRxg7FbpYqny6Ysbsuiu5h8Vy6X2UjB6TifRkogo+NAufTFu3NvoPJQ/8ilj8pD/b++DvM/ufSJHiEgBITAdAQkMJ2OjLQLAY8SSLz2nRf7PYu7cEwmlY+irQpcFyyKawmeU5fSD4RANxhPn8JcPp9bx0VS9AgBISAEZiIggelMdKRPCHiMwFQWt6FTWSWuq3pZ3P1aH52EhI9zeUrB/pUtnePKz6lPwFkr6RH+87n80mzsGloV+Q2bPlEkBISAEJiBgASmM8CRLiHgNQKByuJOLqRH+TY90ue6oC4UiiitCTsvfTRKu1qv5/KIAvvBSfvYDXz6RJMQEAJCYGYCEpjOzEd6hYBnCAQxi7tvhflFqp1KyVBcF7wnls69SpW2Wr1+CwWmzarknyiXtkNcd2Rl0+ET2+V3ISAEhEC1CEhgWi3yolcIOEzACId3BjCLm/J2Csdnou0wzmnEAegaJZalUo7/7WxOZ84AhBXTKHa+GfEX/d++e7/zgkWiEBACQqByAo7/ca3cFJkpBIRApQSoPNQb6U7bWyqdX+48N2VxDybDP6PA9JPl+lDxeICXxBZu/kjF86eZGIYQ1UsFY5pux5vzhXqwd12Ud1ywCBQCQkAIzIGABKZzgCdThYArCFAWtw7GTj5b3JfFPTo+cQ3V3D/KxUDX9G0te4bmO6Uv3mO9k4LSZU7Jm00OPcL/8mAydN9s46RfCAgBIcBNQAJTbuKiTwg4TECyuDVt7LKGPiryf6PDaGcQBwmzpsmZM+VTj9XQ+VK3zaDM4S6czGQzjEfVOmy+iBMCQsDXBCQw9fXyinN+JzCVxY2Q4vPTvVnc/Qcf2kOJUA9zsaATodbGOiefN1d9sYWLqIYonDxXOSXPt3HXkUtrHyt5vAwUAkJACDASkMCUEbaoEgJOE6iH+hsp4anJabnTyXN1Fjcdp2nbdKwm2wURPUTHhs7hiu4dW6hrsGkOIsqbinjQzg9tK2+SjBYCQkAI8BGQwJSPtWgSAo4SaO7KvBA1uMRRoTMJ80AW92C7+bVCYtZMbjjbB29r6cmdX6lMPVJzM90tbah0frnzEO2rB1bFR8udJ+OFgBAQAlwEJDDlIi16hIDDBMJmaDcFNZLFfQJXS8utpyz93AnNyn4NFY4PTd1nlqugtTv7UtoO8MFy51U+Hn/c325+tvL5MlMICAEhoJ6ABKbqGYsGIeA4Acninh7pcHvk1xpg9/QjnO6BJW0LlraXKRVMMAvloaDMeRUOR8xZhXqvGlYoQKYJASEgBFgISGDKglmUCAEHCUgW96wwJ3PHUhScDs060KEBCHDDvH1HW0sVR18s3q/p8LJSx891HGj4ueGV4R/OVY7MFwJCQAioJiCBqWrCIl8IOEwgsWARPapmzOJG3Om1LO7CMZuQx+scRj+DOGipDdWXdub8jt56Kg91ywzCnO1CHMvlM1c7K1SkCQEhIATUEJDAVA1XkSoElBAoZHHT01++IKOQxW0NUYKO967e3vvpuE38JZflAJBs7s78/Wz6Ek0xWj941mzjnOvHm4c66v7snDyRJASEgBBQR0ACU3VsRbIQcJyAZHGXgTS1zLLsPNUI5brADOuFhLTpr6buiedqCHTHm+vCx/oOPT6nklZclooeISAEhECBgASm8joQAh4h0JrOnsucxf0jr2dxD7WH7tVs/He2JQY4r7XHevt0+sJGZAfdLa2drt/pdrDtK7XUyZNOyxV5QkAICAFVBCQwVUVW5AoBZwmAiWahPBRnFvdl5ILns7gRshvIjYyzyzG9NFPXb9f2PBw5cUS0O/ca+mLxrhPb1f2O/9Pbbn5JnXyRLASEgBBwnoAEps4zFYlCwHEC8f3WBySLuzKs/cmaRzTEXZXNrmQWnNoWPqUQ1P/tuvBOg64ZH/P/bbATP2EebevpNjghVmQIASEgBBQTYLr7otgLES8EfEwg1tnfoJvR39LN0oUsblIWt2VP/p2fEmai2wfm6c2tv6U7lgs4GKKGxzA3fvrAqobegr5oOp80QO/h0P2kDjvdt8Iot7Yqn3mMmmKdo21g1F5AzxpeSe+hM0l14TXQSP8Kd9GHEbRfg40/szX7mwPJ0P9Sm+efEpAPcgkBzxKQwNSzSyeGB4VA4mP5rRrq17D5i/bmvqRxE5s+JkVtaevDCManmNRReGN/kjhe3LTrcFOkrvF3FBTFWHQjjoxlxk4fXTNvgEWfS5W0pjOLTc1MEffltAWmpJO56AvFw6jZtwzc8+VPa3ddlHepa2KWEPA1AQlMfb284pzXCTTunTi5JkInGWlQw+MLZXEf/OMLfJkwk0rpiYXX/YBYvpSJpZ23rXMN3Xgf5ZnyVQdAex0FxIzbBnholqwl/UAooZ1VCEhpbzGESp533EAKUH+Wy+c+fLgj8qvjmuVHISAEGAhIYMoAWVQIgUoJxPfbX6LHz3THh+fCfP5d/R3m3Tza+LW09OReTmfb0+NapiQyxF9poP1dpQFS+YTwoT782Qu15Nm58ud6f8bU3en6xn8n3q+Zuzc4quXt9/Z1mP85d1kiQQgIgVIJSGBaKikZJwSYCUTTuWUGmP/Npxb/p2+FvoxPX3U0JXryn9N0/f3V0a5Wq23l3zyw0vymWi3ulN6yZ2h+qLb5XqoTe7ZzFqJFWWQXDCbNrzsnUyQJASEwEwHJyp+JjvQJgWoRKGRxg8GYSR6cLG4LMxspS3+sWkurTi9+I6hBKTGFUKT5c84GpYWVApOS1v6tuSvzQnXrJpKFgBA4noAEpsfTkJ+FgEsIxM9bfgl9KBYyiJku/Jf+9vDPmZRVVc1UtQFEvrPqWbzFXN7KMp4oxeJUyUra0vmVtDvjrSVPKGsgNITN0Gc02rta1jQZLASEQEUEJDCtCJtMEgLqCBT2ydG561vUaThBciGLe3L82hNaff1r3/hBOqYT/+AXJ0HDvYMra37rF3/K8aN+92gCAW4qZ075Y+HMGJx1RfnzZIYQEALlEpDAtFxiMl4IKCYQqZt/Pd39iSlWc5x4vCFwpYXWnzRhIx3X6YsL+zN4hO+LjMuYNdTVUlAKhbqkSi9dg03RvWM8tYSVeiLChYC7CUhg6u71EesCRqBQe5GC0lV8blMWt/ZgJ58+92gaSJp30V3T77jHososySNeezjZcqSy2d6eFU1nX0xB6Ud5vIAGPVJzM48u0SIEgktAAtPgrr147kICBoR20gct214227LXB7W0UGH57Vzh2E70bCF1qrf5f4PfvvvjLnwpc5gEOph30PuF7XOMSrd9sDWdPZfDOdEhBIJKgO0NHVTA4rcQKJVANG29hT743lTq+LmPC3QW9xS+gVXh/6MMfc8GdlQe6rKgnlCU2G+9m94vr5r7+6AcCQAmmoXDC6TUYjnYZKwQKIOABKZlwJKhQkAZgdSBsAk63S3luoKdxX085bHM+GYKTkeOb/PEz4B3Da4MeX4rQkWs0wfr6DSt7RXNneskHV4W3299YK5iZL4QEALFCUhgWpyLtAoBVgLxtsWrUYPTuZQGOYv7RMaFxC9EvPHEdnf/jhMZK+OT5K3ySce1xAa6abmo/JnOzADUb4l19jc4I02kCAEhcDwBCUyPpyE/C4EqEGjoPhanzXLX8akOdhZ3Mc798OBeCk49VG4Jbx/pqP1DMV/83tbSOX4SlVOrblAOsFA3W6/2O2vxTwhUg4AEptWgLjqFwHEE6qFuK939UV7u5imVQc7iforBM/6ns+URKRHMExf+ue/IgM8OCCgdfCgUuZXeL/Qov8oXwPrGvRMnV9kKUS8EfEdAAlPfLak45CUCsc7sizQdLuayOeBZ3DNiHmg3v0F8XH/OfD5vb9Q2tPnwSNUZl2eqM5bOUbITvHv2kRwjoCYSiezg0CQ6hECQCEhgGqTVFl9dR0APFTJ8weAyLMhZ3KUwzmOO7ppirpSxVRkD+IPBDvPzVdFdbaWplK5rRuH94pqMeKoKsDyazi2rNhrRLwT8REACUz+tpvjiKQKxtHUhfci+ms3oIGdxlwh5KBl5iALTfSUOZx6GtmUV6q5qyKzYFepiCzd/hGLSl7jCmOOMMMDYpV14J9uXy+NUy49CwJcEJDD15bKKU64nsPOJWh102ivHdQU7i7scypmxo1uofNRAOXM4xiLgZ4c6wj/m0OU2HS17hubrmr7NbXY9aQ+cGT9v+SXutE2sEgLeIyCBqffWTCz2AYF4/cIr6G7pc/lcCW4Wd7mMR9Y1j+Q1vLbceSrH097XY7Y9GdgscDPStJneLwmVjOcim6oEbGnadbhpLjJkrhAQAk8SkMBUXglCgJlAy57xZ9PetI18aoOdxV0JZzrm81/oifnPK5mrYg4gbhtM1h9SIdvtMmOdk8+j98taV9sJEIvUzb/e1TaKcULAIwQkMPXIQomZ/iEQCkduob1y9VweBTmLu2LGd12Up6uwn9MFFz7Sl3l0lwsMqYoJeih8O71fwlVRXo5SgFWt6czicqbIWCEgBJ5JQALTZzKRFiGgjEBLT+7lVB7qfcoUnCg4yFncJ7Io8/fBjtD/0CP0L5U5zfHhmLc3aGtOyzgu2AMC6f1yPj3Cf5sHTCUTIWToocB+gfDGGomVXiAggakXVkls9AcBKncT0o076AOMqdxNsLO4nXjRZPMZOvoSJ5yQVZEMxHv7O8x/r2iu1yel7jPp/eKpQA8Q3hhNW2/xOnqxXwhUk4AEptWkL7oDRaAtsflDFJSew+V0kLO4nWI8dewn4E6n5JUnB62slltX3hz/jI61Le2g98sSr3lkgr5TSx1w/9YDr4EVewNDQALTwCy1OFpNAtHtA/Nsg6/cTdCzuJ1c676RgZvprumfnZRZiiy0cf/hZOSXpYz125h5+4626jqkvOgXanB6vG3xai/aLjYLATcQkMDUDasgNviegNHUsokyixdwORrkLG7HGU8d/4k7HJc7o0A8PGGNXTfjEB931obqb6C7pS1edRF0uK6h+1jcq/aL3UKgmgQkMK0mfdEdCALx9OSptK2U8ZFssLO4FbyoaE8wXKRA7rQibcTUsdXzh6Yd4OOO5nTmDKoLmvS2i9BYD3Vbve2DWC8EqkNAAtPqcBetASJAlW5uo8AmwuVykLO4VTCmZJb30vq9QoXs4jLx1wPag93F+/zfGtYKme1get5THS6OdWfP8rwf4oAQYCYggSkzcFEXLAKtPbnz6EP2Ajavg5zFrQLyjt56Ojp2uwrR08nEfH69ljw7N12/n9vjaesCerpA7xk/XGCAae72gyfigxDgJCCBKSdt0RUsAlTuxmQtdxPsLG4VL662pthG2hv8bBWyi8pE/Fp/R+j/Fe3ze+OehyMAOj1d8M9F5aOWxtLWhf7xSDwRAuoJSGCqnrFoCCiBtralK+hu6Rlc7gc5i1sF46Z9E89BhCtUyC4qEzFrY/byon0BaGwLn0InbcGpfnNV1/Qd2s4nav3ml/gjBFQRkMBUFVmRG2gCjV0jzWjAFj4Iwc7iVsE5YoZvpUCJLaCgSgp7BtprHlbhi9tlRtNjC2wdrnG7nRXZB/CceP1Cvi84FRkpk4SAewhIYOqetRBLfESgxpx3g4bQyuVSkLO4VTCO9eSWarrOmImPfdnsyI0qfPGCTB1rttGWiXlctqJmX89Zm5Z829iyZ5xvSwgXSNEjBBQQkMBUAVQRGWwCLT2ZF9CdNjq1huuiLO5D93dxafO9ngvvNAAM3qQV275meE3rUd+zLeJga2f2HKr7Saei8Vyg4e/6Dz50Sz5vb+TRSFoA6kPhyC1s+kSREPAwAQlMPbx4Yro7CYT0EAU1fOVuEPPrtNQyy500vGdV4rXvvJjqaLKV+aFTun7W17v1k94j5YjFYIYKmevA9llkob1eSy3JDnaYn9cAf+CIF6UI0eF98c4cY9mxUoySMULAfQTY/hi4z3WxSAg4TyDaY72VPmTPd17yNBILWdzJ0H9N0yvNZRJoTg83aobOWBgd6cqv1VIpu0xTfTE82m29j94vbMEaAn5rMGl+/S/w0LIsSrhCJvb0dSdEd+JTKfnc9cWrV5xQRUDeIKrIitzgEUgdCOu6fjub4wHP4lbBOaI3XkuBEt9Rkoh3DiRD31Phi+tlFmrEGjrj423M5bO59cdzGeoI/5iC1c8e36b2ZzinLbGZbduCWl9EuhBQQ0ACUzVcRWoACbQtWLyWkhxO43KdHgHfEdQsbhWMo/smT0cbLlUhu7hMHM9q2SuL9/m/lb1GrI1dQ6sivzmRrG1PXk3vpWMntqv63Tb0bdHtA2yJXqr8ELlCQBUBCUxVkRW5gSJQv3s0gRps5nMa+6zMCOMjZz7PqqXJCId3UpJKmEs/lYfacThZ+ziXPjfpqUKN2IHMxNFUMQaDyfpDtBbbivWpaKMvrwuMppZNKmSLTCHgBwISmPphFcWHqhNoqKu9iYKa+WyGBDiLWwVjKg/1RnqE/xYVsovKRHyiV+ujOqnBvCKRyA7izVYjljbyXjeyrnlkOtp9mUd30V7TR6brd7wdYF08Pem7wwQc5yQCA0lAAtNALrs47SSBaFf2JfQh+1EnZc4kK+BZ3DOhqawv/UBIB2NnZZMrm5VHKlWUXDhe2Wxvz5qqEYvAeEwn/rz/3rs/NiO1NadlMG9vmHGMo51Ax6+GfXX8qqN4RFigCUhgGujlF+cdIAC6yVnuJthZ3A6s1zNEJOCslXS3+/nP6FDUQF8s/new3fw3ReLdLbYKNWLzhXJqd12Unw1Mf4f57xrivbONc64fLmjtyZ3nnDyRJAT8QUACU3+so3hRJQKJ/da7ac/Yq/jU4xcDm8WtAHLDnmMxOqErpUD0NCLRti1rLXXiNAN83VyFGrF3DyZD95UKNavl1tHSsNUENnVjl5a6zyzVPhknBIJAQALTIKyy+KiGQPpgnabp29UILyaVsrgxy3daTTETfNbWUFO3he6WNvG5hZ8aXBn+KZ8+92iqQo3YyUwmU9bj+cPJyC/Rxv181OCMtgVLk3z6RJMQcD8BCUzdv0ZioUsJxLUEfejBIi7zgpzFrYJxvCd7JlVSuESF7KIyEY+Ojk8ENhs7Ao3X0fuFs0bsziOX1j5WdC1maJywxshOPDzDEEe7UIcb5u880uKoUBEmBDxMQAJTDy+emF49As3piUV0jgtfDcqAZ3GrWGnaHEyZ2GCokF1MJp3RftPYZQ19xfr83jZVIxZhNZufiAdta+jmSvQdWz1/yEZMVTK3ojkIrbUNDXz6KjJSJgkBPgISmPKxFk0+IhCGMD3CB3qUz3SBfWVQs7hVEI53W8tp/ZapkF1MJqWs/b438+gdxfqC0MZdIxbBvmpgVXy0UrYDh+7vorumv650fvnzoKNlX2ZJ+fNkhhDwHwEJTP23puKRYgKxdI6SneDditX8VTxlcX+vb4X5xb82yA9zI5B6rAYMnepo8l123r5co5JEfBrdo4m9RqyGP+pfYX5uTgRSyywsZPOzXWCGwiG6gy+XEBACEpjKa0AIlEMgldJ1zdhNgSmUM63ysVNZ3JfR/EBmcVfObfqZiQWL6Lx0OHn6EU734D2DK82vOi3VE/IKNWILmedsF6KFzlQ96E+G/ovKR32NzXQNzo92WW/j0yeahIA7CUhg6s51EatcSiC2cPNHKCalgvpcV3CzuFUQju4dW0jrd7UK2cVlopXLFkoQBfNKaGetoi8Bi7m8p328nxtKhn/klD4bs5dTcJp1St5scnRDv11LHWA7Fnc2e6RfCFSDgASm1aAuOj1JoGXP0Hxd09nO1KYPxEBncat4keiRGkqIgQYVsovLxO7h1ZEDxfv83TpVI1aD6/m8xFErM3mVk/oG2msepq00bHuDKaHyeW0LFq910geRJQS8RkACU6+tmNhbNQJmpGkzBTUJLgPo7s/WoGZxq2Dcms6eS4chfFCF7KIyAYcmRkdTRfsC0MheIxbx5sFL6w86jdbKjGylnTRs1RSohNnm+t2jbH9nnOYl8oTAXAlIYDpXgjI/EARinZPPo6CG7U7GVBb3oYfY7tQEYBHBxKmjY5n2BtNXGBuvP7q+cTgAbJ/hInuNWA0f6zv0+M5nGOJAw/Ca1qOabV/jgKjSRADMb6ir5XsyU5pVMkoIsBGQwJQNtSjyMgE9FL6d9iay7f2ayuJOLWHb2+bltSnF9vh+6wOaDi8rZawjYxB/1Xvo/rQjsjwohLtGLObtDVrq5ElVqPp6t36SHun/TJX8Z8qFj0S7sox72Z9pgbQIgWoRYLt7UC0HRa8QmCuBlp7c+SHd/K+5yil9Pt7Tt0J/fenjZeRMBGKd/Q26Gf0tfbFYONM4J/ss23rdUHvoXidlekVWoUYsGMaX+OzF++j98lrV+gpl4nQw7qd74Syfm4Uycf0r9KXkl1TkUL24It9VBOSOqauWQ4xxHYHUfWaIt9xNoLO4Vay/brZezRmUUhzxlaAGpRp7jVjMZ61coZya8msgGfoerS1bPWHaOvSqxH6LrV6ycoCiQAiUSEAC0xJBybBgEoi1Le2gOySMJ7IEN4tbxSusce/EyRSUUt1SrgszVF3oCi5tbtPDXSOWEgQ/dnhl5BdcHLKY3UjB6TiXPg31W7X0Qb4T5tgcE0VCYHoCEphOz0Z6Ak5g3r6jrboOKTYMAc/iVsE5EonQCU9Qo0J2cZm4uz9Z80jxPn+3steIRRwZw7FrOakeTtY+Doh8p4YBnNSmJa7k9FF0CYFqE5DAtNorIPpdS6A2VH8DBTUtXAYGOYtbBeNoOreMHocuVyG7mEzaE3gof3j4pmJ9QWgzIzW30PuFr0YsYOpYcv4gN9tere9WqjH8BJdeBNjQnJ5YxKVP9AiBahOQwLTaKyD6XUmgOZ05g4pdJ/mMw18GOYvbcc4X3mkYwHkUpqbpeXvT4MbYMcd98YDAlq7sy6j+5gfYTEX8TR8+2MWm73hFyYXjVAuM8S4m1IUhvP14E+RnIeBnAhKY+nl1xbeKCYS1EJ3vDWbFAsqcaNn5dVpqmVXmNBk+DYH4ecsvofU7c5pu55sBH+jt2/oZ5wV7QiKETN4asTbm12vJs3PVotO3wvxiIWueTz+8u1AVgE+faBIC1SMggWn12ItmlxKIp60LKGHmPD7zApzFrQBy067DTXS3e4sC0dOIpOMQsvm1WiplTzPA183xHotO04Jz2Zy08T8H2kPfYtNXXBHalkXVAJBpzQF0zdhNrzH5zC6+HtLqIwLyIvfRYoorDhDY83CEPgJuc0BSiSKCncVdIqSyhkXq5l9PXyxiZU2ay2DAL/SvCn1/LiK8OrdQI5beLzez2V/4CmBlL2fTN4OiwZXhn1Jg+qkZhjjbBfCSRNvmjzorVKQJAfcRkMDUfWsiFlWRQCJyyjq6+3MqnwnBzeJWwbg1nVlMQekqFbKLykQcy01kqIRQMC/uGrGg497B1TW/cwvt0fGJTZQIdZTNHl2/qWXP0Hw2faJICFSBgASmVYAuKt1JIJoeW0AZsJu4rAt6FrcKzoY+tTc4pEJ2MZm0htuH19T9qVif39uqUCO2P2MfudFNXMcua+ijWqpb+WyChBlp2synTzQJAX4CEpjyMxeNLiWgY802Ki80j8u8IGdxq2AcTVtvAYQ3qpBdVCbiH/vHDjJu+yhqRdUaI+EI+c5YIxbtaw4nW45UzeFpFPceeugO2mX8+2m6HW+mv1FrYz2TpzkuWAQKAZcQkMDUJQshZlSXQGtn9hzQ4UN8VuBPApzF7Tzm1IGwCfpO5wVPL9G2qWTQ+pMmph/h356pGrEA7+TykAK/B/u+/eVPcukrS09qSdbO23z7XgHCOoRvL8tGGSwEPERAAlMPLZaYqowAmKGpcjdM7wf6mM3lLwtqFreKVYy3LV5NdTRPVyG7mEwEvH+gw7yzWJ/v2wo1YgsZ4mwXvV/yVPXgrovybCrLVDS40vwqJULdU+a0yocDvDWezr2+cgEyUwi4lwDTB7F7AYhlQiDabb2PHkm+go1EgLO4VTBu6D4Wp7vd16mQXVwm5nGqVFDxXr+3TtWIBXghm5823jWwMvRdNn0VKsplc5Q4iWy1iKFwgETqPrZayxVikWlCoGwCEpiWjUwm+IrAjt563dDpKEWmK+BZ3Coo10MdJZ9AowrZRWXa+ImBjvCDRft83liFGrETWchu8ALW4dWRAxSYdvPZCi+ItS3t4NMnmoQADwEJTHk4ixaXEmhrim2kZIJnc5kX5CxuFYxj3dmzNB0uViG7uEw8Mobjgc2KjtTOT3HWiAUbdxxO1j5efC3c1zoxOkp8cIjLMl2HG+btO9rKpU/0CAEOAhKYclAWHa4k0LRv4jmIcAWbcQHP4lbBGZ48CtNQIbuYzDzijaMd8/qL9fm9rbUz83z6ErCSzU/EJ3qhz1NnxB9d3zhMwfT1bIw0aK4167fw6RNNQkA9AQlM1TMWDS4lEIlEdtAj4Fou84Kcxa2CcSxtXUjloZaqkF1MJtWr/N3goYf2FusLQpsRDlHVA2CrEZvX7Ku05MJxr7HtPXR/mh7p/5LLbtpfvaI5nTmDS5/oEQKqCUhgqpqwyHclgVhPbqmGcCGXcYHO4lYBeecTtTrot6oQPZ1MC+31GpUGmq7fz+3sNWI1/P5g0vyCJ5mmllmWnadEKK4LzLBWOFhCLiHgDwISmPpjHcWLcghQuRvKaOUsdxPoLO5ylqbUsfH6hbQFA55b6vi5jqMvFt+iQOnrc5XjyfnsNWKRyoJaa4kVepIXGT3UHrqXzP8Km/0A58W7rXew6RNFQkAhAQlMFcIV0e4kkHjtOy8GgLPYrAtwFrcKxi17xp9NCWuM59NT1dlsbr0KX7wgM7pg8aWcNWLp7PlPD7aHH/ACm5lsRMzSlyfMzDTGyT4w9B3anocjTsoUWUKgGgQkMK0GddFZNQLN6eFGzdAZz7YOdha3ioUOhSO3UGZ4vQrZRWXa2DW0KvKbon0+byzUiKXHC9dyuUlVK47Z1sQmLn0q9fQnax6hwJTxyQycmoicwriFQCU9kR1kAhKYBnn1A+h7BBqpEDvEuVwPcha3CsbxztwrKDOcDkTgunAwM3E0xaXNbXq4a8TqiFsHVjX0uo1DpfbkDw/fRMH2oUrnlzsPATZF02MLyp0n44WAmwhIYOqm1RBblBKI7ps8ncpDrVaq5DjhQc/iPg6FMz+mUjqECnuDAZwROLsUtPHakXXNI7OP9N8I7hqxdPDo73szj97hJ5KDG2PH9LzNdgeYtrjM07Fmm58Yii/BIyCBafDWPLAeG+HwToppwlwAgpzFrYJxW2LzhygoPUeF7KIyEX/Rf+/dHyvaF4BG/hqx9hXamtPY9mRyLWFv39bP0CP9n3Dpo/JRH2rtzPK9T7gcEz2BIcB25yEwRMVRVxKg8lBv1HXzm1zGFbK4+y/R38Slz+96otsH5unNrb+lO0JsjymplMJrB5Oh+/zOtph/sW7rIt0wvlisT00b3tO3Qn+9GtnVl1rYgkJ3+7/Hdrcf8Ad9l+ivJM89W9mg+qsmFlSLgNwxrRZ50ctHIP1ASNcNxjp/wc7iVrGwRlPLJs6glB4rfzmoQalWqBGrc9aIRSuXzfk6aad/Vej7mo2fV/HeKCoT4eXRbotxL3ZRK6RRCFREQALTirDJJC8RSGhnraI7FYvZbEbsDGoWtwrG8fTkqbQFgzFwwclMNsN3VK0KaHOQOVUjFuA5cxBR5lTsGV4dOVDmJM8Nz2UzV1EprDEuww1D367t6OWrXsHlmOjxPQEJTH2/xMF2sGHPsRgFpdezUUAcyIwfvYFNXwAU0bbg22gN+eozIu48cmntYwFA+wwXWzrHT6Iav1c9o0NZAw5PjI7yvT+V+TG74OE1dX+iDP3ts490agQ8K9EYY1xLp+wWOUEnIIFp0F8BPve/oaZuC91ta+Jykx4BXxfULG4VjFt7cudRUHqBCtlFZSIetK2hm4v2BaBxqkasBnVcrgLi9UfXNw5z6au2nv6xg7fRXdM/8tkBlzd1TzyXT59oEgJzJyCB6dwZigSXEoj3ZM+kE2su4TMPfx7kLG7HOafuM03WvcGUKYL21QOr4qOO++IBgVM1YhHey2cqHug9dH8Pnz4XaFp/0oSt2Rv4LIHaiBm5lU+faBICcycggencGYoElxIA3aSEJzC4zMtjfp1210V5Ln1+19PWtnQFrd8ZfH7ij/rbzc/y6XORpkKN2LBBNUT5asTmbHq/pJZZLqLAYspA0ryLqnbcz6KsoAThwmhX7tVs+kSREJgjAQlM5whQpruTQLzbWk4fssu4rKO9Y3cHNotbAeTGrpFmNGCLAtHTiETMWdZl1InTDPB1c6xt84cpgDmbz0n8j+H20D18+tylCadea8j2JVY36WCKC+9k+5LuLtpijdcISGDqtRUTe2cnkHqsBgx9x+wDnRpBWdyZDOPjOafsdq+cGnPeDRQotXJZSKd0fW54ZfiHXPrcpKdQIxZ0/SY+mzCDmL2cT5/7NA10hB+k8lGf4LKMSq29KPq65f/EpU/0CIG5EJDAdC70ZK4rCSQWLFpPd0tPZjMuwFncKhi37MssofXrUCG7uEwctTKTgc1eNppbruGsEUs3pXf3J2seKb4WwWkdw/HNxOIIl8cGwI3N6eFGLn2iRwhUSkAC00rJyTxXEojuHVtI2+SuZjMu4FncKjiHwqHC3mBTheyiMhFvGby0/mDRPp83TtWI1aCwhYHnQuzNHx5mvDvL41YlWkY75vWjjYzbVSAegcbrKrFV5ggBTgISmHLSFl3KCZiRmlsoqGlQrugvChDsq4Kaxa2CcbTLehut3/kqZBeXiY/1HXr89uJ9/m+lGrHkO1+NWBvtTYMbY8f8T7Y0D/t7H9pH20h+V9rouY+iKiWXRrsm/27ukkSCEFBHQAJTdWxFMjOB1nT2XPrD+wE+tZTFvcL8HJ8+n2tKHQjrpk7F9PkuzFPpntTJk3wa3aPpLzVi385mEeADA71bP82mzwuKUkuyFtq09YjrgpBhhndyaRM9QqASAhKYVkJN5riRAJhgMpa7QbTQWksgApnFreIF0LZg8Vra63iaCtnFZeJ9/R3m3cX7fN5aqBELlKnNdtHRE9n8Wi2VstlUekTRYNL8OpWP+hafufDmWJf1Jj59okkIlEdAAtPyeMlolxKI77foTimcy2VeIYt7KBn+EZc+v+up3z2aoLvdlAzCdWEebWsdlza36WlbsDRJe7H/ns0uwC/0rwp9n02fxxTl7Ry9FjHHZTY9mdippR8IcekTPUKgHAISmJZDS8a6kkCss78BUKe9pVxXsLO4VVBuqKu9iQKl+SpkF5eJ/9LfHv558T5/t87feaQFdbiBz0scz2Uzga16UArnoWTkITp2rLOUsc6MgcUJ7axVzsgSKULAWQISmDrLU6RVgYButl5NQc1CNtWINwc1i1sF42hX9iV0t/ujKmQXlYk4MjY5fm3RvgA01jY0sNaIpYf4twyvqnsiAGjn5GJm/CitCw7MSUhZk+H6hj3HYmVNkcFCgIGABKYMkEWFOgKNeydOpqCUMXlgKotbkgecW1I6OdakvY7A+LcIbxhdM48xAHAO1lwl/aVGbPtc5ZQ8H/GP/WMHWRPaSrbNZQNH1jWPUBDPV84JoKm+pu5Gl2EQc4SAxvhhILSFgPMEIpHIDgpqapyXXFxikLO4ixOZW2tiv/VuSnh61dyklDMbH+rTHmR8ZFqOberHcteItW37Sm39SRPqPfOHhv577/4Y7TVl3GIC/xzvyZ7pD3rihV8ISGDql5UMoB/RdG4ZBTXL+VwPcBa3Csjpg3Wapm9XIXo6mbZFpXmSZ7MlmUxnRzXauWvEUqb5/QMd5p3V8NWzOu+6KJ/HPGNSHhj0yIKxOoNnV0YMZyQggSkjbFHlIIEL7zQMMOiEIK4r2FncKii3aYkr6W73IhWyi8vErw+sNL9ZvM/nrXsejuiGzniQAL1fLIvvRCkfLd9gMnQfashYxgxeE++2GL/g+2ixxBUlBCQwVYJVhKomED9v+SUU1LA9gqLyUB8Laha3irVsTk8sQoANKmQXlVmoopnNMu5FLmpF1RrbIqesBYDnsRlg4ycGOsIPsunzmaJMJkPvDWQ7+AEMfYeWeoxtS5TPlkvccZiABKYOAxVx6gk07TrcRB+yW9Rr+osGyuIenRznS0pgc6x6isIQpkf4QI/yeS4A3De4uobt6Ecer0rTEuscbaMasdeUNtqJUXhkDMcZa9I6YbO7ZBy5tPYxytBnTLKEkxMLFl3uLgpiTVAJSGAa1JX3sN+RuvnXUyY+Y5mT4GZxq3iZxNI5SnaCd6uQXVwm9mfwCN8XmeJGVK1VD/HWiM0j3jjaMa+/ag77RLFtDd1MwelBPnfg6tbu8Wfx6RNNQqA4AQlMi3ORVpcSaO3MPJ+CUsbC0MHO4nb8ZZBK6bpWOAoTwHHZ0wikQOnaw8mWI9N0+7o52pM9m1h/hMtJ2vLyu8FDD+3l0udnPQOr4qMINt/BBAD1ISNys5+Zim/eICCBqTfWSaz8CwEjHKLHW8B2lJ5tU4ZsQLO4VbzoEm2bP0ox6UtUyC4mk5JI/m/w23d/vFhfANpAn8q45qsRayFVPUgtyQaALYuL/SvMz2k2/pBFGSmhLR8faOnKvoxLn+gRAsUISGBajIq0uZJANG29BRDeyGccZXG3h77Fp8/fmlr2DM3XdP0mTi9tK3+ZRiV4OHW6RVe0x3oPlVN7JZc9VB7qW4NJ8+tc+gKiBy0oVDdA5PEXIDR14IXG9kSDxy/R4iUCEph6abWCbGvqQNgEnS8ZIOBZ3CpeamakiRJiIKFCdlGZgHcNrgx9p2if3xupRiwVqGSsEYu5fDYX2KoHKl9OQ8nwj+jO/2dV6ni6bDg33mN98Olt8psQ4CMggSkfa9E0BwLRBYsvpcdMp89BRFlTg5zFXRaoEgfHeiZPo7t3a0sc7sAwnMhYGaqTGsxrqkYswEls3tvYNbQq8hs2fQFTZGcmr6a7pqNcbgPoN8c6+xu49IkeIXA8AQlMj6chP7uSQEP3sbgBcC2fccHO4lbBWYfw7bS3NKxCdjGZ9MXitpGO2j8U6/N7G3uNWA0HMxNHU37nWk3/Bi+tP0hP8/kSkwAW6mYrBcNyCQF+AhKY8jMXjWUSqIe6rfQIuLHMaZUPz9ubg5rFXTm06We29OTOp6D0rdOPcLaHHnv+qXdkgPExtrP2z1VaWAvfSu8XthqxaOO1I+uaR+Zqt8yfmUDfocdpKxM+NvMoB3sB1jfunTjZQYkiSgiUREAC05IwyaBqEYh1Z8/SdLiYSz8iPtj331/+BJc+3+tJ3WeGdM6jYzXNzlOJnQ1tY75nW8TBWFfuH+hLwEVFutQ0If6i/967P6ZGuEh9GoHUyZNo21c8rU3pL1ATCUduU6pChAuBIgQkMC0CRZrcQwCmMkTB4LIIMT1e4XgAAEAASURBVLhZ3CoYx9qWdtDduyUqZBeVCfiDwQ7z80X7/N5INWLBZK4Rq8n7hfNl1d9ufpnumt7HpZNO2HtnNJ1bxqVP9AiBAgEJTOV14FoCsW7rIioPtZTNQMripvJQ97Pp87miefuOtuo63MDnJtpW1iokWDGV1uHzrBRNiQWbL6YEsxeXMtaJMfR04cuDyRBbkOSEzX6QkbVyhfJRbCXQjMKBGBfeyXZzwA9rJD7MjYAEpnPjJ7NVEdj5RK2u67RXjuuiLO5MZgOXtiDoqTXrt9Dd0mYuX2mv42eGVoV/wqXPTXqmasSCTnuxuS6czGQzjI+Vufxyv57DKyO/oBO2+LZPALww/rrlK9xPRiz0CwEJTP2ykj7zI16/8AraK/ccLremsrhX1/6RS5/f9TSnM2eADmwfZpTwdMyGyU1+5zqdf+FwE1WtYKwRa+OuI5fWPjadPdKulsDo5Ph1lKXPlnBGj/S3NHaNsH3JVEtPpLudgASmbl+hANrXsmf82fRIciOX60HP4lbBOayFdlGgZKqQXUwmIG4bTNYfKtbn97bovsnTEWANm5+IB+380DY2faLoGQRG18wb0ABTz+hQ1gDRGn3e9crEi2AhcBwBCUyPgyE/uoNAqDayne6W1nNZE+QsbhWM42nrAlq/81TILi4TH+nLPEqBcDAvw+StEYtoXz2wKs5W7D2Yqzq71334YBfdNeU71ECHla2dmefPbpmMEAJzIyCB6dz4yWyHCcQ7c6/QEN7rsNgZxOH3A5vFPQOVirv2PByhU2NYS8xQoHSFtua0TMU2e3hivDv3Biqn9o98LuCPKTOc8XhMPs88pyl5ds7GPOMxsBAyjMKTELmEgFoCEpiq5SvSyyFQKHcT4ix3Q1ncOYsyXIOZxV3O0pQ6NhE5ZR09wj+11PFzHod4b3/S/Mqc5XhRQPqBELDWiEXMWcGteuDGlwhVEfkW/fn6OpdttG/8DYlui/GLEJdnosdNBCQwddNqBNyWtsTmD1FQcw4XhiBncatgHE2PLaC9jowJSGhltRwFwsG8YtpZHbRlgu/RKuK/Dq8M/zCYtN3rdT6bXU+P9LNcFoKh366lDoS59Ime4BGQwDR4a+5Kj6PbB+bZhs6WUBH0LG4VLwIda7ZR0to8FbKLyaQvFvsPJyO/LNbn97Z56aNRHSDF5ifimGVnrmLTJ4pKJjC4uuZ3oOPekifMcSBqcHp0weJL5yhGpguBaQlIYDotGungJGA0t1xDQc0CLp1BzuJWwbi1M3sOPeajO95cFx6esMau49LmNj21Om+NWLojd8tQR92f3cZB7HmSQMY+ciM90u/n4mEAXNvQfSzOpU/0BIuABKbBWm9XehtPT9KeRCjs9WS6gp3FrQAymCFzN60h298T28brj62eP6TAF9eLnKoRi3w1Ying+UPf+MHbXQ8mwAYeTrYc0fL2Zj4E0Fhv1t3Ep080BYkA2wdJkKCKr+URAAhTFjdEyptV+eggZ3FXTm36mdFu6320fq+YfoTTPfjrgd77u52W6hV5YQwVvgQYXPaCbW/Q1p80waVP9FRGoO+/v/wJOib2wcpmVzAL4aOx7uxZFcyUKUJgRgISmM6IRzpVE2jtyZ1HH7IXqNbzV/lBzuL+KwQHf9jRW68b+i0OSpxVFGJ+nZZaZs060IcD4t3WO6g81Gv5XMPv9LabX+LTJ5oqJnDXRXl6bzA+eQIDzMKTErmEgLMEJDB1lqdIK4dA6j7T5C13E+gs7nKWptSxbU2xjbQ3+Nmljp/zOMSv9SdD/zVnOV4UkHqsBnTOGrGYt58sp+ZFWoG0mcpH3a/Z9p1czgPC0li3dRGXPtETDAISmAZjnV3pZduCpUm6W3oGl3H0mCsd1CxuFYybuieeiwhXqJBdVCaVxLExe3nRvgA0xhYuWkfloU5hcxXx4wOrwv/Hpk8UOUIgY2WvpH3BbFsv6InJDm3nE7WOGC9ChAARkMBUXgZVITB/55EW1OEGPuU4PJEbk7OeHQQeMSO30hcLtg8kKvF1x0B7zcMOuuAZUdG9Ywt1jbFGLOLIWGacMZnGM0vhekNHVtf+EQBp3z7XBYviDQs3cGkTPf4nIIGp/9fYlR7WNjSk6OjRVi7jKIs7FdQsbhWMYz25pbR+F6qQXVwm9lmZka3F+/zfqtfUUI1faODzFLeMrpk3wKdPNDlJoNfuu4VKfD3hpMyZZNF2no0tneMnzTRG+oRAqQQkMC2VlIxzjEDLvswS+pDtcEzgrILwQJCzuGfFU+6AC++kMoaFo2MZL9u+ZnhN61FGja5R1dqdfSnt5WOrEUtbXn7bpz24zzUAxJDyCSQXjuc1m/FABKgLhSOsSZDlQ5EZXiEggalXVspHdobCoV0UmJpcLuXs4GZxq2CceO07LwYAvjIxiD/t6936SRW+eEAmmGDeQe8X4LKVyqmt15Jn57j0iR41BAaT5hdor+n31UgvIhXhvfHOHGPZuCI2SJMvCEhg6otl9I4T0S7rbfQhez6fxfjV4fbQPXz6/K2pOT3cqBk64yN1CpM0KoGTStn+Jlvcu3iP9X4qD/Wy4r3Ot9I+3m8OtJvfcF6ySKwCASqrYK2l4JTpvUNfV8PGHfRelbiiCovtJ5XyAvLTarrdl9SBMGVw8p0gU8jizgU3i1vFyyECjXQMKDAeRYhfHEiGvqfCF9fLpBqxVB6K8fEo5vKYW+96LmJgyQQG28MP0F7TT5c8Ya4DEc6OtW3+8FzFyPxgE5DANNjrz+p924LFa+k79fO4lE5lca+q+T2XPr/rie6bPJ3KQ63m8xPHs5jdyKfPXZoSjTHaIwjP4rMK9w0lIw/x6RNNHATy2uQ19LfwGIeugg4d9G3R7QPzuPSJHv8RkMDUf2vqSo/qd48mUAPG8jPBzuJW8SIwwuGdtNUxrEJ2MZmAuONwsvbxYn1+byvUiKWglK9mK+JAZuzoFr9zDaJ/g8n6Q7qNfOfaA7QZzS3XBJG1+OwMAQlMneEoUmYh0FBXu42CmvmzDHOs29bsTUHN4nYM4nGCYl3WmyhQestxTWp/pFI3vVof1UkN5hU2IjuIN1uN2LyG146sax4JJm3/e92bfZSqaOAjfJ7CZfH05Kl8+kSTnwhIYOqn1XSpL9Gu7EvoQ/YjbOZRFvfAwa2fYtPnd0XpB0K6qe9kdRPsKzUqecOq0yXKol25V1NdyHfxmYM/H/z23f/Cp080sRNYc1qG0gj5TmnTIEIPV/jyCdiBikKVBCQwVUlXZBcIgG6a9G0dmF5rwc7iVvGSS2hnraL1W6xCdjGZtB/ue30rzC8W6/N9G9WINUzKbGa88lZ+rXbXRXlGlaKqCgT6k+ZXKBHqXj7V8PaWnhxjBRY+z0STWgJMwYJaJ0S6ewkk9lvvprs/r+KzMMBZ3AogN+w5FqOglPEoV7Rty7qMXEEF7rheZPR1y/+ZeJ/JZSh9CfjS4MrQd7j0iZ7qEqAyJfTeQovLipBu7NJS95lc+kSPPwhIYOqPdXSnF+mDdRrqjPsEg53FreJF0FBTt4X2BjepkF1cJn5qcGX4p8X7/N3atOtwk6HBjXxe4kQ2n5EzzvmAV13T4Y7Ir+hkrzSfIbCkbcHSJJ8+0eQHAhKY+mEVXepDm5a4koIatvOT6Q/urUHN4lbxEoj3ZM+kSgqXqJBdVCbi0dHxiU1F+wLQGKmffx29X+gONdMFuHOko/YPTNpEjUsITOTG6AkIDnOZgwBb5u880sKlT/R4n4AEpt5fQ1d60JyeWER/kBjvxuDj/VofZTLL5RQB2hxcODrWcErebHJAw61jlzX0zTbOj/2t6Qzt4WWtEfvnvpGBm/3IUnyamcCx1fOHqBQb4/YcaKltaLhhZqukVwj8jYAEpn9jIT85SCAM4e30QVvnoMhZRNkbg5rFPQuYirrj3dZyWr9lFU2uYBLd7f5976GHWJN+KjBT2RQTQpTBDCFlCk4QTDt5r9I2tI2d0Cy/BoRA76H7e+iu6QE+d6G9ZV9mCZ8+0eRlAhKYenn1XGp7LJ2jZCd4N5d5gc7iVgE59VgNGDrr3Wc7b1+upZZkVbjjdpmxHuvN9H6hf0yXjT/sbzf/lUmbqHEjgdQyK2fn1/GZBmYoHKInMHIJgdkJSGA6OyMZUQ6BVEoHKJS7AShnWuVjg53FXTm36WcmFiyi89Lh5OlHON2D9wyuNL/qtFRPyCvUiNV1xnqPiBZaa4lNIKseeOI1wWTkcHvoHnoZML7v4PzWHuvtTO6JGg8TkMDUw4vnRtMTbZs/SuWhXsxnG34yqFncKhhH944tpO8UV6uQXVwmWrlsjvHOTXErqtVKNWJX05cAvhqxgJ8Z6gj/uFr+il53EbBzWTr2FjNcVhmg36bteTjCpU/0eJOABKbeXDdXWt2yZ2i+pus3sRn3ZBa3nMnsIHAzUnMLBUoNDoqcRRR2D6+OMO51m8Ucxu6/1Ii9jk8ljtqTk4GtesDH2TuaBlbV/J62QrHt7QaA57VFTincsZdLCExLQALTadFIR7kEzEjTZgpqEuXOq3R8kLO4K2U207yWruzLqDzUB2Ya42gf4NDE6GjKUZkeElYfqdtKd6fZasTaGm4bvLT+oIcQiakMBKzJkZvoRKheBlVTKuhvzDWxztE2Ln2ix3sEJDD13pq50uJYz+Rp9Aif7Zswfct/OMhZ3ApeBBB68uhYpr3B9BXGxuuPrm9kq6eogFnFImOd2RdRUPpPFQsodyLiowMHH99V7jQZ738Cw2taj9pg8z15Apivh2r5nqz5fwl956EEpr5b0uo4pEP4dvqgDXNpt+3gZnGrYBzvsT5IoeK5KmQXl4m/pJI1jCfQFLeiWq16yNxNvNlqxFKK4BVa6uTJavkret1NYODg1k/RXVPGE9fgI9Ge7NnupiLWVYsA292RajkoetUTiKdzrwcw/596TU9pwHv6Vuivf+o3+X9uBGKd/Q26Gf0tfbFYODdJpc+2bOt1Q+2he0uf4Z+RbT3Wu1A37mLzyMb/7mvXz2PTJ4o8SSDenXslGMZ36QsTS1xAT73+t3+F/g8ESypEePIVo85ouWOqjm0wJKfuM6k8FOMjQsritnOXBQMuj5e62Xo1Z1BKn0NfCWpQqu18ohZ1zhqxmM+CvF943kne1tLfEfpfem/+G5cXtPXrldEe6z1c+kSPdwhIYOqdtXKlpbEFS1fSN+wX8BlHWdztkV/z6fO3psa9EydTUEp1S7kuzCBmr+DS5jY9ibqFVJ4HnstlFwLuP5yM/JJLn+jxNoFcLrORgtNxLi+ofNR2LX2wjkuf6PEGAQlMvbFOrrRy3r6jrVRNP8VmHGVxT1rHGM94ZvOsaooikQid8AQ1fAbg7v5kzSN8+tyjqbV7/Fn0JeAqPovw8IQ9xliOis8z0aSGwPCquifoeOBb1UgvIhXgpDZMUDAslxD4GwEJTP/GQn4qk0CtWb+FgprmMqdVPBzyeN2RlU2HKxYgE59GIJrOLaPHacuf1qjwF9pTdih/eDiw2bimHrmFAtN6hYifJtpGTB1Lzh98WqP8IgRmIdCv9dGXVXx8lmGOdaMOG5rTE4scEyiCPE9AAlPPL2F1HGhOZ84AHVbwaacs7t779/Pp87mmC+80DNa9wZqm5+1Ngxtjx3xOtqh7hRqxFJS+v2inkkb89YD2YLcS0SLU3wSSC8ep6smVfE5CbVgL892l5XNMNFVIQALTCsEFfVpYC1HCE5hcHCw7v05LLbO49PldT/y85ZfQ+p3J5yf+pLdv62f49LlIUypF1aFMOl2HJ9u54Dnm8+u15Nk5F1EQUzxEYKDdvBNtpAx9pgvgolhXrpChL5cQ0CQwlRdB2QTi3dY76DOWsfxMgLO4y16d2Sc07TrcREcDbpl9pFMjaNdaLn+ZlkrZTkn0kpy2BZs/SEHpS9lsRvwaZVgzlm9j80wU8RFAGyyqfoJM71n6i2Qau+lvhMQkfGvsWk3yInDt0rjUsD0PR8BgLXcT6CxuFa+CSO38FH2xiKmQXVSmjZ/vXxX6ftE+nzcWasSipm9jc5NKHuRzwa16wMY5AIoGk+GfUWD6SS5Xab/7ixMLNl/MpU/0uJeABKbuXRtXWpaInLKO7v6cymYc4q6gZnGrYNzamXm+psNKFbKLykQcy2UzjJnoRa2oWqNutG6iLwFsBxcA4p7B1TW/q5rDothXBEbHJ66hE6GOsjkF+taWPUPz2fSJIlcSkMDUlcviTqOi6bEFCLCJy7qpLO6RYb67TVyOVVGPEQ7tpC8WIS4TaA23D6+p+xOXPjfpaeyaPIW+BHDWiO3LZkdudBMDscXbBMYua+ijWriMrylIhMNN13qbmlg/VwISmM6VYIDm61izjR63zONyOchZ3CoYR9PWWwDhjSpkF5WJ+Mf+sYO3Fe0LQGONHibfIcLmqm1fM7ymle/uFptjoqiaBPoPPrQHNGS7C083P9ZE902eXk2fRXd1CUhgWl3+ntHe2pk9h8pDfYjP4ABncauAnDoQNkGnu6V811TJmfUnTfBpdI+m1p7ceXS39B1cFtGd6Z/19W5l2w/I5ZfocQGB1JKsZdt8p7UBhA0zfLsLPBcTqkRAAtMqgfeYWjDDU+VumF4vlMRt59cGNYtbxWsjumDxpagB210Ievx3/0CHeacKX1wvk2rEmrpB5dS4Lqp6YAW36gEX5SDrGWw3v0blo/gqPejwj/Hu3BuCzDzIvjMFGkFG7H3fo93W+zSEl7N5Qlncw+2hH7Dp87mihu5jcQOAcd8W5tEqlJoJ5tV23vIkPcI/g817xDsHVoa+y6ZPFAWSgKXlaL80stXGhcKXu/QDbPvhA7moLnVaAlOXLoxrzNrRW28Y+nY2ewKexa2Ccz3UbaVAqVGF7KIybfzEQEf4waJ9Pm9s7BpppiMWb+BzE8ezWpbxlB4+z0STuwgMt0d+rQHynSYG8PyYdlaHuyiINRwEJDDloOxhHYnGGJX6gWdxuRDkLG4VjGPd2bNor+PFKmQXl4lHxnB8c/E+/7fWhOal6P0S5fKUykPtOJysfZxLn+gJNoHJ3LEU3TUd5KKgA6TmpY+yvZ+4/BI9MxNgO1JyZjOk140Emronnksfspfz2YZ/CHIWtwrOYJq7aRuGoUJ2MZm0D23LaMe8/mJ9fm9r6cm8gFjz3eFBfKJX67vV71xP9C+6fWAeNDa/C3T9zRpqL6KDXgtfnEP082EE7beUQf4/WbTuPJyM/PLEufL73AgcWdl0OJLOX0fnNHXNTVKps6G5Vq/fckzT+Govl2qajFNGQO6YKkPrfcERM0IfelDL5YmN9pVaQLO4VTCOdVsXUXmopSpkF5NZKCnT3/vQvmJ9QWgzNd4asXm0N2rJheNBYDvlI20riu/PX2c0tz6h68YnqHTduyhAet6Tf6PALJxmRm2v0jR9cxjCv4j32N9q7sq8MDB8mBzt//bd++muKVvQT3/DVjSnM3x7tpk4iprpCcD0XdITZALRrtyrDdP8Hz4G+J2+Ffpr+PT5XNPOJ2oT9c/6DX1YP4fL0zzm/3EwaX6dS5+b9MS6rDfppvENLptoy8v/9q/Q/4H0IZfOauqJ9eTeSMFomoLQRWXZQUe0EqKr+pKcVRLKstCTgwvl0Ezd/Dab8Tb+d1+7fh6bPlFUVQJyx7Sq+F2qnMrd0Ifsbj7rMG/ngpvFrYJzvH7hFZxBKZWH+lZQg9LC+um6fp2KdSwuE23bstZSXyCC0kQ6fxUFpfSFp8ygtACPamJqVL83ns4HbstD8deOM61D7aF7NRv/3RlpJUjR4bXxboutLnAJFskQhQQkMFUI16uio69b/k/0SOxFbPYXsrhXhf+PTZ/PFbXsGX82rd9GPjcxR98s1vHpc5emln2ZJZRg9jI+q/BTgyvDP+XTVz1Nben8Bgosb6YIc06fVQD6BpK1qnqe+E/zpJ2lovuY4fKM9hTfpqUeq+HSJ3qqR2BOb/bqmS2aVRFoTg83Us1LxrORg53FrWIdQ7WR7XSnqF6F7KIyETuHkpGHivYFoDEcMt/M5ibi0dHxiU1s+qqoKNqdew0dT3mLUyaQrNuiXZN/55S8oMs5srLmUbpryneaHMApsYWLAvsFOEivNwlMg7TaJfgagUZ6JAnxEoY6MiTIWdyOADxBSLwz9wrKDH/vCc3qfkUcyIwfZazbqc6VSiUjamdXOrfceZRgtnXssoa+cud5bjwVVjeNqT2lDn5GQY2uh+/wHAsXG2znh7ZpiAe5TNQ12BTdO7aQS5/oqQ4BB9/01XFAtDpHoHA3gY6tvNQ5iTNLCnoW98x0KuhNpXQIFfYGUwEdposOw7xuZF3zCJM6d6ox4CQOw4j173sPPRSIwCqOL3qviiN0QYc3JLqtf+RYryDoGFgVHwXNZryDDw16Tc22ILANso8SmAZ59U/w3TDD9FgG2I6As9Ber6WWUNasXE4QaEts/hCt3zlOyCpNBv68/967P1baWP+OQltj2fdm5+3Lg/J+of2EF6t6xYCh366lDoRVyQ+a3N6k+Rnaa/pjLr+pfNSHWruzL+XSJ3r4CUhgys/clRoL5W4oqGHbK0flbr4Z5Cxup18EhaLjtqGz3kmg8lDrtLsuyjvti+fk6RrV/1Z94T2DK82vqtbiBvkte4bmkx1Uj1TNVbgTG1+4eI0a6YGUirmpKhG0qYXlAjDBLDw5YHsyxOKWKPkrAQlM/4oiwD/Qfi7d1Pk2sWuUxY259QEm7rjrRnPLNZSJv8BxwdMIpC8Wdw8mQ/dN0x2s5jw+qtZhtHLZ4FQ9MCLzX0gxh9LTyui9srmh+xjbXnq1r4/qSx9eGf4h7TX9VzZLqApGvMd6P5s+UcRKQAJTVtzuVJbQzqIyKrCYzbqAZ3E7zTmenjyV1u8yp+VOLw8nM5nMhun7g9Vjg/YDtR5j9/DqyAG1OlwkHaFwxKjiCxrrzbqbFCsJlHjLzlxFwekYl9O03eMWjU4D49InevgISGDKx9qVmhr2HItRUHM9m3GSxe04aqohfhutYcRxwdMJRNx55NLax6brDlo72pmv0x47NVsaAIcmRkdTQWJKz2d59rkjXBxNZ18cJLYqfR3qqPszBaaOlfea3VZ4VqIxdtXs42SE1whIYOq1FXPY3vqauhspibvJYbHTipMs7mnRVNRROBqQgtILKppcySQqDWNbQ1TwXK6nCEx9INuakv2fkMfrjq5vHH5KVxD+pzvQh3n8pHtuaO4mXbJX0SHgfeMHb6cvaX9wSFwJYuDypu6J55YwUIZ4iIAEph5aLKdNjfdkz6S/yf/stNzp5UkW9/RsKuhJ3WeaOu8Z4Aj2VYUSMRVY6+spWcxR/V+0nHUSf97be/9+Z2W6XxpY1m+5rKTyUf8Q67Eu4tLnez3rT5oA297A5yfUho3IDj59oomDgASmHJRdqgP0wt0CtUkGx7suWdzH05j7z20LliZp/c6Yu6RSJeCP+leYnyt1dJDGHe6I/ApsdLAqAmbylvVPWmqZw8Gu+1dlYFXN7ym57k9cluq6fqu284laLn1+19Pbbn6JvqR9h8tPSmR7V7Qr92oufaJHPQEJTNUzdqWGeLe1nIKa13AZJ1nczpKev/NIC+pwg7NSZ5KGaKG1lkbgTKOC3Nd7791bCI8Dj/QRAe3k4MrwT4PKUwf8Ip/vsCjesJDxLh+fZ9XShHbhb4WifddFnDJM4w7twjuVVnIoolaaFBGQwFQRWFeLTT1WQ0WmGR9/SBa306+H2oaGFB092uq03Onk0SldnxtKhn80Xb+0EwGq6do3+chFGuBdlfPAnK3Z/0xFyz9duQzvz5zMZPdSIg3b4Rt0121jS+c4ywle3l+d2T3obw//nNbv47OPdGoEnBl93XLGbWlO2S1yihGQwLQYFZ+3JRYsupzulp7M5ibg7ZLF7Rztln2ZJbR+Hc5JnE0SjlqZScl+nQ1ToX/NaZm+S/R30x3P1XTHqMy9uPhrKlS+dGCF+YlSVPl5zMjq2j8C4D4+H6EuFIps59Pnf01jmfHNFJyOcHlqaHBj067DTVz6RI86AhKYqmPrSsmt3eNUIxCuZjOukMWdHWIsIcLmWdUUhcKhXbSGJpsBiDcPXlp/kE2f9xVhb9LoHMuPnaqhfQttYzk0o0uIP7Xt/MV9B79z5lSh8hkHB6czg0cKWyP6+TyG98S7c6/k0+dvTaNr5g3Q+tEaMl0AsUj9fEpClMvrBMDrDoj95RFo25//DGr6B8ubVflo1PIfooSZz1YuQWYeTyDaZb2N9lP9x/Ftan/Gx/oO/vEFWurkSbV6fCw9ldKj8U1nGaC/GACejboWoZ26R20bf5/PZb8/vKaOLdHHa5Sj6fwK4pZmsxvwgb4/bzlXS6VsNp1+VkSnCibgxb+gL9JMB7jQ6aiYe+FQMvKQn7H63TcJTP2+wsf519KVfVnINL9PfyR41t3GH/a1668gEyRh5rh1qPjHPQ9H4pFTf0XBzfMqllHmRMzn39XfYd5d5jQZLgScIUAJLfHz3/UA7QF9kTMCZ5dSuHs90G5+cvaRMqIUAlSO6826btAhFFwXfqNvhf4WLm2ix3kC8ijfeaZulQgUlBbKQ/EEpbS5yALrMoIhQalDr4i2yClrOINSWrr7JCh1aPFETGUEKKHMtvKFvyNslw76tpY9Q/PZFPpcEQX536C/JfSP64I3F4JhLm2ix3kCEpg6z9SVEuM9Fj2+h3O5jKN9dZ+VLG7naNfvHk2gBpudkzibJMxTyZd1s42SfiGgmsDgytB35lbpoEwLAdrMmqZrypwlw2cgQI/XKeEWczMMcbSLatPertE2AkeFijA2AhKYsqGunqJYZ38DgM54jCSO2plJvgSr6qFl09xQV7uNbnaz3cWh8lAfmyr5wuahKBIC0xPIWJkrKbCZmH6Esz20dWBtrHOSbcuMs9a7T9qTez5ZqywsTmhnUWUMubxIQAJTL65amTbrZuvVFNQsLHNa5cMli7tydkVmRruyL6G73R8p0qWmiUq8jE6OS3arGroitQICIx21f6DAlM5h57ogoofCt3FpC4KezNjRLbTDizL1uS64rmHPsRiXNtHjHAEJTJ1j6UpJjXsnTqagdD2fcZTFfejxnXz6fK+JTo6d2hvM+F7FG54s9eJ7tuKghwj0HRmgsnP4Zz6T4e0tPbnz+fT5W9PIuuaRvIZ825EAmuojdVv9TdWf3jF+2PkToNu9ioQj9K0farjsRNu+QkoLOUc72mO9hx4rvso5ibNJwv/P3pnAyVFV+79OVXX3bElm6+5JEGQRZBEVxOWJBgFxX9nU5/ZASc9kgwTCGqAJAVmTEJLMdHB5Lk95IO489A+Iog83FJGHoggoSDIzPTOZJLN1d1Xd/+kgmGWWXqpOV1f/6vPJJ91V957fud/b033q1r3nPtGnPbJxplK4DgLiBFZ0jNq2c5Gkbkg31mrJB0xJzSBrDdx3F+8GpR4VayPRZ2I92deI6UHIFQIITF3B6E8j7ancibyK+1Q573gVd6f5LTm9gCultjRwDkfR3Wg4Vc4yLXGc2CKFgPcgmucygYEu8+u8EOoXLpudxhwd1TF3fuc0BXCpGAKcZcG27HOLqVJeWeKvUPOW8mygtjQBBKbSxKX0OP+foRmcHkrqUHbWyommdZFqWaV0OrT4hTwNY385fXV3ujP0Qzk9KIFA0QSUZeXT0CmxBPiK6KrZa7a3Fu0pKkxKIJ9lgbO2fHPSi56cpBM6eqzTPTENo54QQGDqCdbKG42dfNo5HNS8WsqT/CrubQsjvMMHDjcItKTGD+AfxBVu2CrIhlJZO5sVnItckFcoBAL7EBjsCv9akRLcTY5a6xqbVu3jCE6UTCBrZ/i7TS7LgtL1G7U1z9WX7DAqihJAYCqKW0ZszqbhFtLpahk1VuFV3KNq9HIxvRoQClOYH+FTg1RTidSGgcV1f5HSgw4IlEPAcSYu4VG3neXYKKYuT4lKtG7IHFVMHZSdmkAFsiwcGG+Yx7lUcVQDAQSm1dBLRfpYp8+6koOa9iKrlV6cVHJnYvZA6QZQc3cC0VSOFzvRR3Y/5+1r1Z9R2zEi5C1kWHeRwECicSspda2LJmcwRWYoHFo7QyFcLoKAeJYFoovbusf2K8JFFK0QAQSmFQLvlWzbxswRmk4LvbK/j12l/tSnHtm0z3mcKI1AMqkTGTxZX2rrWHbTdlZuS7RuL81h1AKByhDoyzzNgaJ6Sk6dTmnrsT4opxdwJc6ywFlcLhZrJVGjqUc45RgOvxNAYOr3HirSP8PI39WT2FZsjrKXYxV3kZ00TfF4x8qzOD3UsdMUcfWSUuqRvh9/64uuGoUxEJAgsPTQjLIduXnY3CYzv9Xl+icjEs2rBQ3O4vJfmqN+KdZWoo+3bsq+SUwPQiURQGBaEjZ/Vop3W+/juaXvlPMOq7jdZN26fnC2puvXuGlzJltK2edpnMJlpnK4DgJ+JNDfZX6b57jfL+cbHdIRPhjZR9wDrixlnZtfqOCeyeksEYXMXemjaLpSuFZZAghMK8vfPfXk42Ey+G5e6sAqbtdJh8PNvICM4q4bnsqg49zB6aEenOoyzoNANRDIarllHNhYUr46Ol0W3TjSIaUXdJ1/Zln4ilw76Q0dKetTcnpQKpYAAtNiifm0fPvcw5cojQ6Tco90dStWcbtHO9ozcSinh1rqnsWZLKnxjJW9cKZSuA4CfiewLRF5TDlqs5SfPNVmlm7WCy68kmpZ5XSciYlL+eZiRMoDpenXRjf2N0npQac4AghMi+Ply9JN3TtjBhGPtkkdvIrb2S6XjkqqWRXU0Sl8M693Cku5wOmhbhpeXP93KT3ogICXBMat0Ss4sNnmpcYetok+3d6TPW6Pc3hTMoGBJY1bHE0wywLRPN1o42AYhx8JIDD1Y68U6VMjNazmR8BziqxWenGs4i6d3SQ1Y925d3JQ+v5JLnlyivM//qN3OC261aknDYFREPgngZ2LZw86SiXlgJBuvLDVJeYqugQ9PfH0Gp5q+rRL5mY2o9PyOZsmDp65IEpIE0BgKk3cZb1od/YYTg91tstmpzSHVdxTointQurhEBnGmtIql1bLsTlFC6dqKa02aoGAPwmktUe6edT0j3Le0ZvbU9bH5PQCrpTPsuA4F8i1kiJ1evgmOT0oFUoAgWmhpHxajkxzHY+WGlLuYRW3u6Sj2jFd3H9Humt1OmvqoYEu8+vTlcA1EKhKAonjcsrm9HWCh6Hp12mpLWI7tAk2rSJS4lkWdPpwW0/u5Io0FqJTEkBgOiUa/1+IdltnkqL5Yp5iFberqGdt2NHG2fSTrhqd1phyrJyVT3UjlJplWmdwEQRcJ9DfFfoRPw7+vuuGpzJItH+Hil801WWcL57AP7MsiKWwM3VjrXbGHWKDO8UTqb0aCEyrtc/XPFev6/oNcu5jFbfbrBvDjTz5nlrctjuVPV65/JXBReHfTHUd50EgCAQclT2fg9OsVFuUTitaUuMHSOkFXWdXlgWSy7LA38FHx95+2oKgc62m9iEwrabe2s3XWNO8Fbxg5uW7nfL0JVZxu4s3n0xfKUq4a3Vqa7zgaadD+ZQsOEAg2ATSnXVPklLr5VpJ9WEVvlFOL/hK445slgUiWjVn07DYIEHwe7C8FiIwLY9fRWq3bhzbn3PpiT0+wipu97vZDM/5AN9YNLpveXKL/EN97UCicevkV3EWBIJFIJsd5nR2qk+sVTqdEd2Ue6uYXsCFdiZmDwhnWWivC81KBhxr1TQPgWnVdNW/HA2FI9fx4wexCfeOci7CKu5/8XfjFW8d+zY37BRmQz3Vl3l6bWFlUQoEqp/A0NK2HZrjXCbXEh5zM4xbMFfRPeLiWRYUdbX2ZAQXorrHKmiWEJhWWY/GNuberCkSTFHCq7gT5jeqDJPv3eVdug6XclIpTsHCqVik9KADAn4g0Ne7+kv8tOd3Ur5waHpM/O2nniWlF3gd8SwLFDK1kGjqvsD3YYkNRGBaIriKVEsmeYMgvivnZ8Ay+opTXlrnshZWcbsMnJTW6rLJyc0pdX9/wvzO5BdxFgQCTCCZ5KfBNn9/KbnvL9KvaUkNyW12EuDuyzdNOssCP8l6Z3uPJbbZScC7r+TmITAtGZ18xWjHyk/zaKnYNnj5VdwDneGH5VtaA4qkWd63UlkvpF7xXgkKIOBHAulE6OccmP63nG8Ui+hzBLeHlmtZpZTsXPYCySwLpq7fpCUfF9seulJc/ayLwNTPvbObb+3Xp2fppF+72ylPX2IVt6d4NeVoW7xVyI8TqVQ+9YrXOrAPAn4mkFVZXiiqxqR8VA4tad8wcZiUXtB1BhbX/UUyywJPszosNu/wpUHn6uf2ITD1c+/s5pvR0noZP8Hv2O2Upy91R12DVdzeISZd/d4763nLamg8N3qltxqwDgL+J7AtUf8sBzZy6ZyIJ1yZ4Zv9T6Z6PJTOssAb11zeuG4kXj2EguUpAtMq6M9YauIQnlea37FH6FBP9WafXickVpMytuXc42XDHUcldy6ePeilBmyDQLUQ6NX6buBHCM+J+avT+2LduXeK6QVcaFeWBeWsFGsm0eymxvrVYnoQ2oMAAtM9cPjzDd+A8903RaS8wypu70kP9F/zMx7VfMobJfV4uvfBbm9swyoIVCGBxLwxO5/2TvCg/FaXqYdDgpKBlurbuvqLklkWeD3H2e2p7LGBhurTxiEw9WnHvOhWW0/uZA5KP/jie8//xypuzxHvEuAVw3xc44VYzrGXackTBRZXeeE9bIKANwQGOs3bObD5X2+sT2KV6Ig4HbNwkis4VQqBfJYFy+Ynh1JZFkjXlZl/ciiUBacUKMGsg8DUz/2afMA09Xx6KKmDV3E7OcEpA1Lt8qdOunf1l/lL9iduesc/vHcNdYbuddMmbIFAQAgox8qnv+Olh2IHXTkrtaNdTC7gQumFoZ9xXHqHVDM5fdRboz3WmVJ60HmBAAJTH38SOubOT/DN2lFSLu5axd0V+T8pvZrX4REAW43/O/9QPusGCw5K/zE6NrbIDVuwAQJBJDCwMPxb/nv7T7m2UUu93rhKTi/4SlkteyH3oViWBV3Xb9BSW8R2Wgx+D87cQgSmMzOqSInZa7a3Kp2ukhPHKm451v9Symc+mLCyJ/IXbXnzTUkN5qzce0fPa5LbH/xfzcArEKgaAiNj45fyqNsOKYd5hfeClk2ZV0vpBV1HPMuCRgfEtPiKoHP1U/sQmPqpN3bzpb6p6SqefN222ylPX2IVt6d4pzW+fWHd0xPWjtdr5Hx92oJTXOSR7j9bTu4t2xZG/jBFEZwGARD4J4H8zRtpSnDFNRlhM4QsJy5+AqWzLPB2sxe2bhzb38UmwNQ0BBCYTgOnUpdaN2T48T11yuljFbcc68mVti9s3tZ3jvFx27byo6e/nrzU3mfViKY5q/u13mMHE5En9r6K9yAAApMT6M08vZ5v6P46+VUvztKJsR7rVC8s16RN8SwL1BAKRa6vSdYVaDRVQBOSMxCIb3b+Hwemp8xQzLXLOcd6BxbMuIbTDUMU7cm9lec2ncGj5m9jg4fx5gphDljzy1F7SWkP83zSe7JjO74xvKxl2A1B2ACBWiPQvsn6gGEa35Vrt3qmb8vfj9SSB03IaQZaiWKbnZ+RRsfLtJK/f237rf1dIbnMDjIN850KAlOfdUkFviy/17dAl0tH5TPeVeIOaWueq9N2/DWHNFBV0mNwsyoISA8CcEKAy/oSxrVVAacKnGzvyR5n6OaveCBH5ukvqYf7nl/1Ro0XrlYBnqp1EYGpn7pu/ZORWOSQ/+P5LK+QcUtlnFz2VelFdYKPtGRaBhUQAAEQmIlAftpUKBz6PQc25kxl3bmuRuzM+CsHljRucccerMQ321/QNP1sKRKOZn8mvcD8opReLerI3GXUItkS2twROfhcuaCUHwxr6hYEpSV0FKqAAAgEgsDQ4sjj/E0ouEsaNemRus8FAp5PGuHkxi+TzLKgK/2a1vWDs33S/EC6gcDUJ90a3TjSoTS6TM4d1WdNDHuy85BcG6AEAiAAAuURGB8ZSWqcbq08K4XX5jmRn2zrzr6h8BooOR2B9KKmXs6yIPdbRtRh1jUL/lZP1/pgXkNg6pN+1UP11/ACF7G7MEdzLh1a2iaWy88nmOEGCIAACOxBYMfyOUPkqCv3OOnpGyKTzPyOfphK5xJnzrJwi2SWBb65ODe6cUJoyp1LkKrIDAJTH3RW+6bs6/g76j/EXFHqt+ktq/9TTA9CIAACIOBjAr1bH0zx42C5Xe90elNss/UJHyOpLteWHppxbOd8OacpoofCN8vp1ZYS7tgq399IeVH5PoAHIAACNU6grSd3sqmb98lhUM/3be9/pbaiY1ROM9hK0lkWkGrRm88TRky94Vqw1fYe66NyedjybqnbkYet4O5BQRAAgRohMNgZup+/H78j11zaL94cvUROL/hKuWxuGfehJdXSkG6s1ZIPCGV0kGpV5XUQmFayD1JbGgzSBXeTUGO5XOaiSjYZ2iAAAiDgVwJKZS/gwCYj5p+i8+fcOn6QmF7Ahf6ZZaFHrpl0VMfc+YK7NMq1rJJKCEwrSL9Di1/IC57E9t/lyeE3DC1qeK6CTYY0CIAACPiWQH+i7ikOTNfJOUh1kUjkRjm94CtxloUrJbMsKKKrZm3Y0RZ8snItRGAqx3oPpZbU+AH8gV6xx0lP36hn+7U+fAF6yhjGQQAEqp2AvW3oGs7xvFWqHTyV67T27tzbpPSCrlOBLAut9aHGq4LOVbJ9CEwlae+mFdbCN/BK/IbdTnn60nGcC7XEvDFPRWAcBEAABKqcwMBF0Z267Vwq2QzDMNZpZ9xhSGoGWUs6ywJvjJPI7yIWZKaSbUNgKkn7n1rRTbm38iP8M6Wk+e7/5+lO8w4pPeiAAAiAQDUT6O1b/RV+pP8buTbQa9rfftpn5fQCrpQ80bKUfZ5cK8kMhUL53LQ4XCCAwNQFiEWZSCZ1MvnumCPTouqVXFg5jrLO5eqqZBOoCAIgAAK1RCCZdFQuH9gose9NQ6Orm9dua64lzF629Z9ZFr7rpcYetolObuuxPrjHObwpiQAC05KwlV4p3rHyLJ5TdGzpFoqtqb40kAj/rthaKA8CIAACtUygf1HoIV5E8w0xBkTRSMNswR2oxFpWMSHOssBJ9+WyLJi6frO2/slIxRocEGEEpoId2bp+cLam63J7+iq1Y2RsHHv6CvYxpEAABIJDIDfO6fWUkkuAT7SoLZU5PDgEK9uSCmRZOKQjfLDgFILK8vVKHYGpV2QnsRsON1/Oj/Djk1zy5JQidfXoeU19nhiHURAAARAIOIGhpQ3/4Dn6grmmKWRQaE3AsYo2TzrLgqPTZdGNIx2ijQyYGAJToQ5t3zBxGKeHWiokxxNK1ZP9W55YL6UHHRAAARAIIoH+0S038ajp36XaxlO93h3tsd4jpRd0nXyWBV5pIfbkkPtvlm7WXxt0rl62D4Gpl3R3s22Ewjfxeqfwbqc8fcnpoc7XkkdlPRWBcRAAARAIOoHl+4/vSrcn2E4ifY2WejgkKBloqXTv6i/zfOGHxRpJ9On2nuxxYnoBE0JgKtChse7cOzkofb+A1C4J5agfDXSa35fSgw4IgAAIBJlAusu8g6dGPSjVRs6L+cqYOmaJlF7gdfJZFrI2Z6eRyrJAuqGb+fRRQtl3gtWDCEy97k++6yXDEJwzpHKWllvudbNgHwRAAARqiYCyrHz6KFuqzaTTFU3dO2NSekHXEc+yoNGb21PWx4LO1Yv2ITD1gupuNqPaMV1803Tkbqe8fUmqe6gz8kdvRWAdBEAABGqLQLor/IjmqC/KtZrmNOoNV8vpBV8pl81czDcXYjsgGpp+nZbaIrbDY1B6EIGphz05K7WjXSdKeiixp2lSgxO5nXJ6e6rjHQiAAAgEmsCoGlvJgc12sUYSfSa6MftaMb2ACw0tanhOKXWdWDOJ9u9Q8YvE9AIihMDUw46sV41X8Whpi4cSe5gmW12xfWHztj1O4g0IgAAIgIArBEa6ZvXbSgmOYpKhh8x1rjgPI7sISGdZUDqtaN4w/nLgL5wAAtPCWRVVsiWVOZrnCCWKqlRWYfVYb++Dm8sygcogAAIgAALTEhjY+sStpKm/TFvI1Yt0QjRlneGqyVo2Jp5lgeojZviGWkZebNsRmBZLrMDyYS20lkdLjQKLl13McuxlWvJEq2xDMAACIAACIDA1AU7DZylHdIGpTvoN2prn6qd2CleKISCdZYF3fDwz2pObX4yPtVwWgakHvR/rtj7M6aFO9sD05CYd9e3BztD9k1/EWRAAARAAATcJDCTMuzl91A/dtDm9LTow3jCP933H4RYB8SwLZKzTzrhDbLDKLU6VsIPA1G3q65+MkK7f5LbZqe2pjKLsiqmv4woIgAAIgIDbBOxsPi2fyrltd0p7RBe3dY/tN+V1XCiKgHSWBc5Ne0z8pFPPLsrJGi2MwNTljo/WHbycR0sPdtns1OaUWtufqHtq6gK4AgIgAAIg4DaBwUWRP3H6qE1u253SHlGjSZHrp7yOC0UTEM+yYOirW1JDc4p2tMYqIDB1scPbbx2dp2t0qYsmpzWlNLXVHh7CnrzTUsJFEAABEPCGQGZ8R5I3E0p7Y30Sqzr9e2tP7t8muYJTJRCoQJaFWESfc3kJrtZUFQSmLna3XlfHQSI1uWhyWlO6ci4ZuCi6c9pCuAgCIAACIOAJgeFlLcOcF/MKT4xPapQopBu3aMkkfrsn5VP8SeksC8qhJe0bJg4r3tPaqYEPt0t93dadfQMp+qRL5gowo37du3X1VwsoiCIgAAIgAAIeEei//67beNT0Dx6Zn8Qsvb4jvvJTk1zAqVIISGdZIAobZvjmUlytlTpUKw31uJ0Uv835X02R0CMWpXKOffxQZ+gXHrcL5kEABEAABGYg0J7KnWiQ+eMZirl2OT+Ny9k2+Eo8MXMNqRa7zbmHB5fe5Z7F6S0p23pXf1foR9OXqs2rGDF1od9jPdbH5YJSdthRX0dQ6kLHwQQIgAAIuEBgIBF6gB/pf8sFUwWZII3mGs2tYusZCnKqygtJZ1kg3VirpR4OVTk2T9xHYFou1ht7Gzk9lNzeu0qNWiqDvXfL7TfUBwEQAAEXCWSymQs4fdSEiyanN0W0LJaaOGT6QrhaKIEKZFk4Ik7HLCzUv1oqh8C0zN6Oz4lezAue5HLLKXXdYFfD82W6jeogAAIgAAIuEti+pP4Znmu6xkWTM5iiCKnwjTMUwuUiCOzKsqCpgSKqlFmUrpyV2tFeppHAVUdgWkaXNnePH8hBqeBuHOpvfWNbMGm6jD5DVRAAARDwioBjDX6Og9MtXtnfx65OH27rycntMriPA8E6sSvLgqME0zlRSyM1Xh0siuW3BoFpGQzDRoTvVkls/2JHORdqy/cfL8NlVAUBEAABEPCIQHpRbERxGj+PzE9q1szPVUw+YE56ESeLJiCdZUFpdE7Lpsyri3Y0wBUQmJbYue2bcifwBPTTS6xeQjX103TCvLOEiqgCAiAAAiAgRKC/0+Q0fupXQnIsQ0d3dMxfIKcXcKU7z7RtzT5PrpVkhM3QOjk9/yshMC2lj864w9BNQ/CDpGwnZwn+oZQCBXVAAARAAASYgMpZ+e9rpaRoKINWzdk03CKlF3Qd6SwLfHNxImf3OTXoXAttHwLTQkntVq797ad9hkdLX7vbKW9fKvWF9KLw770VgXUQAAEQAAE3CAwtDP+SNPU1N2wVZENRW50566qCyqJQQQSksyxwdp+btOQzdQU5F/BCCEyL7ODmtduaDY1WF1mtjOJq+6gzJjgZuwxXURUEQAAEQGAXASszwRlb1IgcDupq7ckcKacXbKUKZFk4KD73gOXBplpY6xCYFsbppVKRxtlXaETRl054/EI5atVI16x+j2VgHgRAAARAwEUCA0sat/DTfLkc1xqZIT201sUm1Lwp8SwLRJe03zo6r9bBIzAt4hPQvmnilTwXZHERVcoqyjuJ/LmfHrm1LCOoDAIgAAIgUBECfVuf5fR+6hk5cXpHe4/1fjm9YCvJZ1mgJj1S97lgU525dQhMZ2b0UgnDDHPyZBLbQozTjizXEsflXnIAL0AABEAABKqHQPKgCV66ukLSYV3Xb9aSj4clNYOsJZ1lgdevfLItlX1jkJnO1DYEpjMR+uf16Cbr3RyUvqfA4mUXU5q6J91p/k/ZhmAABEAABECgYgT6u8y7eNT0ASkHOLA5tGPu4edK6dWAjnCWBSJTmeuYK9UA20mbiMB0Uix7nUw9HNJNXXCrOZWzVQ6ToPfqBrwFARAAgWokoBxrGQentpTvnLR9ZeO6kbiUXtB1xLMs6PSm2GbrE0HnOlX7EJhORWa383HtGJ5XSofvdsrjl2rDYCLyhMciMA8CIAACICBAoL8z/Cinj7pNQOoFCaLZTQ3114jp1YCQdJYF0vTPaTf2NtYA2n2aiMB0HyR7nmhav5NX4NMVe5718J1S6czojlUeKsA0CIAACICAMIGRibEreJX+sJwsndW+Kfs6Ob1gK1Ugy8J+8eao6Pa2fulBBKYz9ERjXcPVnB6qeYZirl22NXX58LIWwS8v11yHIRAAARAAgSkIjCydlebH+YJJ8Dllu1nbcxWn6IqST4tnWVB0/pxbxw8q2eEqrVizk2sL6a9YT/Y1pJu/5RFTo5Dy5ZdRz+ayuffwun+xuUjl+wwLtU6AcsrRQvbOga039mnJpFPrPNB+EJiSAK9XiNOxf5CdGmZ/rG+BefuUPuFCUQRi3dZpZBjfLKpSGYV5IfRd/Qv008swUXVVEZhO02XxzQ6vpKS3TVMEl0AABF4koNQoryP9DT+u/N6YNvrVnYnZAy9ewv8gAAIvEMhneNFNQzDjinq2T/UeoSXmjaEP3CHAscGPOTY40R1rM1uxbevEga7QT2YuGYwSeJQ/RT929Fh8h4KgdAo8OA0C+xIg4on6/DdD+poGrelvHbfZq7Q1z9XvWxBnQKB2CaQXmvfwI/275QjQATEtLppLVa5tlVGSzrJgGMY67Yw7jMq0Vl4VgelkzPlxiyL9+sku4RwIgEABBDhIVUq/PN6036+iPROHFlADRUCgZgjY2exyfrKQlWowEV3YunFsfym9oOuIZ1nQ6DXtbz/ts0Hn+mL7EJi+SGK3/6P02k/ygqeDdzuFlyAAAiURoKN1Pfzz1g2Zo0qqjkogEEACA4vr/kKkNsg1jRpCocgNcnrBV5LOsmBodHXz2m1iC7Er2YMITCehz/nDlkxyGqdAAARKIkCxUCh0zwup10oygEogEDgCGbV9FT/S75drGH0kmsq9RU4v2EriWRaIopGG2VcGm+oLrUNgulcvt6Uyh/OWbq/d6zTeggAIlEOAaP+GSGNPOSZQFwSCRGBbonW7Zjsr5dpEpGs8VzGZxO++S9D7tEc28s2F3GY4RIvyMYpL7vvWDD6ge3WNrpnv2OsU3oIACLhAgOe5ndq+KXeCC6ZgAgQCQaDvx9/6olLqEbHGEL0uOm/lf4jpBV0ocVzOcWzeblbqoJBBIcHt0aXatacO0kXtyUOLp+wv8qris/Y6jbcgAAJuEHDUD/o69fe7YQo2qoRA8vFwa8crXqE7epR/cBzHcNKD2mNPafyjXiUt8NTNaE9uPmfC/6mnInsYV325iW2HDS1t27HHabwpmQCnj/oBZyR5b8kGiqxoK/t9AwlTMLNDkQ6WWRyB6V4A+QP2//gDdspep/EWBEDAFQIqN2HtiG9f2LzNFXMw4k8CnCYs3jj345rSP6bp2vH8nRrZ01E1oTnaQxynfr1vbOvXteX7j+95vbbexW9z7tAUnSHVaqWcG/sTxoVSekHXad8wcZgRCj/Gi6bDEm0lTf2ld8ufjtaSR4lldpBC7e+3AABAAElEQVRo14saeJT/Iol//c+5GHGAAAh4Q4BCIa3prd7YhlU/EIj1WJ+KNe33FG+Yd5um00n7BqV5L6lu1zXd+DynFHuS63zCD75XyoeMleEgUYkF57yO4tzoxolXVKq9QdOVzrKgNDos1nH44qBxfLE9CExfJPHi/0oT+3J4URL/g0AtETAMOrKW2lszbU1taciP/JFufJkDn7mFt5v24zpf5WlUt9fqhgzDXfV/4/RRNxXOrMySPLKnh8I3l2kF1XcjIJ1lgXS6oql7Z2w3FwLzEoHpXl3JXw5b9jqFtyAAAi4S4KXB7S6agyk/EMg/uqeOu8t6HE36R+KN+31fSz5T54cmSfvQO5y+nvdF/4ecLn2gtSeHaWsuAa9AloU5jXrD1S657yszCEz36g5H0/6w1ym8BQEQAAEQmIZAvGHebfx4/m3TFCnsEtHJsf0OqM20Yis6Rh3bubgwUO6UCunGWi35gOmONVipQJaFz0Q3ZgOX3hKB6V5/S8q279/rFN6CAAi4ScDW0m6ag63KEujosU7XdP3jbnlBSv80zzk91S171WRnoMv8ukbqF3I+01HRjvldcnoBV7rzTFsp+zy5VpKhh8x1cnoySghM9+Kc7go/wnnl/rzXabwFARBwiYClqT+6ZApmKk2AR9sU6de77Qbp+toanW+qrKx1Li+E4od3MoeuU3LWhh1tMmrBV0l3hh7km4s75VpKJ0RTllhGB4l2ITCdhDKnYqjNR0mTsMApEHCXgMrlnJGfu2sT1ipFIBZ/6wc5Rc7B7uvTAbGmeSvct+t/i4OLwr9RjvqKnKfUWh9qvEpOL/hK0lkWdNJvCNKNHALTSf5G+rS+zZpSvZNcwikQAIFyCCjth8hhWg5Af9Xl3bzO9MojXtl/UevGsf29su9nuw5NXMoLoXZK+cj9mGhJZY6W0gu6jniWBY0OjDXOuyAoXBGYTtaTiXljGjmC24xN5gTOgUDwCNi2jRQ1QepWnTzcYpYaQqGI69MEqgH/QKJxKyl1rZyvZIa10Fo5veArSWdZ2HUjt37sZUEgi8B0il7sW2DezruSfGOKyzgNAiBQJAGeu/2tgYUhwa0Xi3QQxYsi0Lx2WzOvxI8XVanowvTRWHeOd46qvaMv8zQHiuopsZbnMyKkrA+J6QVdSDrLAlFjKBy5LghYEZhO04t9I1s+I7tCchpncAkEqpmAUs+NZUY7q7kJ8H1PAuGGeoEFM/yQ2TTWaclk7f1WLT00w1uHij6eJdJv0tY/udf2sXv2O94VTmBXlgVN8da7QodO/865af9NSM0zmdr7Yy8GJe/fPJHb8V6e6/O/xVRDWRAAgd0JqP5cLvfukaWzkCZqdyxV/jpja0qkCYqOi85b+R8iWj4T6U+Y3+H1DoIpDOmQeORgTGNz73OgrJzF6aOksiwQcW7aW6r9Rg6B6QwfwPxCjf6Jp07WHOcWuQ/XDE7hMghUDQH1mJPLHj+0OPJ41bgMRwsiEFY7+vk7USQ41ZV+Tev6wdkFORawQlktx4GisqSapYgubU+NFrGlrJRn1alTgSwLr++Ir/xUddJ6wWsEpoX0Hj9S6es0zrOU9WbZu9dCnEMZEPAhAaVGiZyr+0aef2N6Ud1ffeghXCqTQHpRbIRNPF2mmcKqE3WYdc2XFVY4WKW2JSKPcfqozVKt4kU0s3RVJ7jwSqplldORzrLgGPq17denZ1WuxeUpIzAtgt9gIvyrvoT+9lw2+6r8j64i9aBkSo8iXEVREJAnwMEoj+z8hJ9aLR/TRg7sPce4QuPpMPKOQFGOgLpPSosDpnOjGydeIaXnJ51xa/QK/tvaJuUT6fSpto3Z10vpBV1HOssC/63MNZpbL61WrlStjvvIb+LVqXOUWddihnVMGvdRx8AVGQKU4/lTIXvnwNYb+3huk9iONTKtg8p0BKKp3Ft0Mn82XRl3r6nv9S3QP+iuzeqwFu2xl+i6vl7OW/UQs34L64lM15BrV4WUeFFZvO4QntJEh8h4oHjxXPao/kSdXGYHlxqGwNQlkDADAiAAArVIILbZ+TmP0IildMo51juGOkP31hxr3v41Pu+E33Ngc5RU2znv8Cd4Zfl/SekFXSefjovI+LZcO9V3+Obiw3J67ijhUb47HGEFBEAABGqTQM6+kAfVxEbVeNXxWo2DtJqDnTzRyjm26Ip53dCv027sbaw51h41uAJZFj7U1pM72aPmeGYWgalnaGEYBEAABIJPoH9R6CHO9yy4GQkd1TF3fk3mxN01UqzU96U+VTwS/rKO5uhFUnq1oCOdZcGswhs5BKa18JeANoIACICAhwRy45mLeNCUF7/JHJzS6KpZG3YIJPiXaU8xKo7Kns+ss8XUKaesUnRBc/f4geXYQN1/EdiVZUGp1L/OeP2Kju7omL/AaxU37SMwdZMmbIEACIBADRIYWtrwD85QIrivPbXWhxqvqkHUWrqz7klmzXm1pQ6qj5iRG6TUakFnPDd6JU9/GZJqqzJo1ZxNwy1SeuXqIDAtlyDqgwAIgAAIaP2jW27ikby/S6HgzUoTrRsyYguBpNpViI6VGV7NgU1fIWVdKaPojGhPbr4rtmBE27l49qDjqKQYCkVtdeasqrmRQ2Aq9smAEAiAAAgEmADnrHUchxdCSR1khsKhtVJqftIZWtq2g3cjFN1wgFeTr9POuMPwE4dq9iXd+2A331xw+iipg7paezJHSqmVo4PAtBx6qAsCIAACIPASgXSXeUd+45GXTnj+gk5p67FqMq9pX+/qL/EI9W89R/xPAR6hPiZ+0qlnS+kFXkc8ywLfyOmhddXAFYFpNfQSfAQBEACBKiGgLOs8Hgmypdw1df1mjZOXS+n5Roc3s3A0O89aLFWXZuirW1JDc3zDoModeSEfr/qeXDPolPYe6/1yeqUpITAtjRtqgQAIgAAITEIg3RV+RHPUFye55NEpOqQjfDAHaLV3pBOhn3Ng+t9yLadYhObw9qg43CLg5GSzLPDuYTdrycfDbvnvhR0Epl5QhU0QAAEQqGECo2psJQdM26UQODpdFt040iGl5yedrMpynlE1JuUTp49a3L5h4jApvaDrpBfV/VUyywLnpj20Y+7h5/qZKwJTP/cOfAMBEACBKiQw0jWr31bqainX+cd2lm7WXyul5yedbYn6Z0mpG8V8Igob4fAaMb0aEJLOsqA0Wtm4biTuV7QITP3aM/ALBEAABKqYwMDWJ24lTf1FrAlEn27vyR4npucjoV6tj/OMqmflXKL3cvqod8npBVspn2XB0ZxLxVpJNLupof4aMb0ihRCYFgkMxUEABEAABAogkDwqaylneQElXSpCvLW7mU88Ty4ZrB4ziXn8KN8R3TpUz291mXo4VD2Q/O1pesvq/5TMssB/Jme1b8q+zo9UEJj6sVfgEwiAAAgEgMBAwryb00f9UK4p9Ob2lPUxOT3/KPUtMP+b5yryYiipgw6Pa8csklILvI54lgXSddPMp4/y3Y0cAtPAf9rRQBAAARCoHAE7m+NRU5WT8sDQ9Ou01JYGKT0f6SjnhVRdjpxPdGXT+p1ROb1gK0lnWeC52W+Jb7Y+4jeqCEz91iPwBwRAAAQCRGBwUeRPnD5qk1iTiPbvUHHRx9pibZtBaGBhmBPuqy/NUMy9y0TNTXUNq9wzCEu5XIZ3T5PLsqBp+vV+u5FDYIq/AxAAARAAAU8JZMZ3JHn+XNpTkd2MK51WNG8Yf/lup2rm5cjY+GXMeodUg3mF9zmxnuxrpPSCrjO0qOE5pRQvZpM66ICYFl8hpVaIDgLTQiihDAiAAAiAQMkEhpe1DPOPrWBidqqPmGHBH/eS0bhecfS8pj7OhrDadcNTGiSDdHPtlJdxoWgC/Vofp/+Sy7LA281e2JIaP6BoRz2qgMDUI7AwCwIgAAIg8C8C/fffdRuP5P3hX2c8fqXrZ3JKo/keq/jSfO/WJ27hhVBPyjlHJ8a6rdPk9AKuJJ5lgRrCFL7eL1QRmPqlJ+AHCIAACASZwJ1n2vauvd3lGklkrNPOuMOQU/SJEqfqciznAklvyNBv1JLP1ElqBlmrAlkWPhJN5d7iB6YITP3QC/ABBEAABGqAwEAi9ACP5N0l1VR+RHlM/KRTz5bS85POwELze/w4+F45n+ig+NwDOAMDDpcIKEdZvHWoEsqyQKRrfCOXTFY8Lqy4Ay51IMyAAAiAAAhUAYFMJsMLLdSEmKuGvrolNTRHTM9HQrlsbhmztsRcIrqk/dbReWJ6ARcaSIR/x/0nmWXhdfGOlWdVGisC00r3APRBAARAoIYIbF9S/wzPNRXca51iEX3O5TWE+KWmDi2OPM6BTfdLJzx/QU1mpO46z2VqSEA6y4Km69e0rh+cXUnECEwrSR/aIAACIFCDBBxr8HMcnG6RarpyaEn7honDpPT8pDM+MpLUSA1K+cTpoz7Ruin7Jim9oOtUIMtC3Iw0r6wkVwSmlaQPbRAAARCoQQLpRbERRc7FYk0nChvhsOAorVjLZhTasXzOENmiqboo5NOtLmeE5dMC0lkWeEeoc6MbJ15RKRwITCtFHrogAAIgUMME+heYX+PHzL+SQ0Dv5fRR75LT849Sb++Dm5n1Y3Ie0RtjPdYn5fQCrpTPsuA454u1km/k9FD4ZjG9vYQQmO4FBG9BAARAAARECCjrhVXHSkSNRXQy1miph0NSer7RSZ5oWY7NC6HkDl7j/bnoxv4mOcVgKw10mt/nm4v/J9dK+kBrT+4UOb1/KSEw/RcLvAIBEAABEBAkMJgI/4p3KeKRU6GD6Ig4HbNQSM1XMoOdofs5sPmOmFNE83Sz7RIxvRoQyjmyWRZCurFWSz5gSqNFYCpNHHogAAIgAAIvEbAyEzzXVI28dMLzF3TlrNSOds9lfCigVJaT7quMmGtEy+fcOn6QmF7AhYY6I3/khWyb5JpJR0U75nfJ6b2ghMBUmjj0QAAEQAAEXiIwsKRxC6/Q/9xLJzx/QS2N1Hi15zI+FOhP1D3FrAX3tae6SCTC+77jcIvARG6naJYFXafkrA072tzyvxA7CEwLoYQyIAACIAACnhHo2/osr5hXz3gmsJdhTml0TsumzKv3Ol0Tb+3hoWt5962tUo3lFd6ntadyJ0rpBV1n+8LmbcJZFlrrzcZVklwRmErShhYIgAAIgMC+BJIHTSjb4R2hpA4ywmZonZSan3QGLoru1G3nUkmfjPxWl2fcYUhqBllLOssC6bSgJZU5WoopAlMp0tABARAAARCYkkB/l3kXj5o+MGUB1y/QiZzS6FTXzVaBwd6+1V9h1r8Rc5Xo1bGTTztHTC/oQuJZFsgMayGxKSAITIP+AUb7QAAEQKBKCCjHyu/tbku5S7p+k5Z8pk5Kzzc6yaSjcvZ5zFosVRcRrWpeu63ZNwyq3JFdWRYc9W2xZhCdHEtZH5LQQ2AqQRkaIAACIAACMxLo7ww/yumjbpuxoGsF6KD43AOWu2auigz1Lwo9pDnq62IuE0Uj9bOTYno1IKQoy9Nf5LIscG7am7T1T0a8RovA1GvCsA8CIAACIFAwgZGJsSt4IG+44ArlFiS6pP3W0XnlmqnG+rls5mJmPSrmu04L2zZmjhDTC7hQBbIsHBKPHOz5Rg0ITAP+wUXzQAAEQKCaCIwsnZXmUaCr5HymJj1SJ5iuSq5lMykNLW34B6/Qv36mcu5dp5ARDnEGBhxuEZDOsqCILm1Pjc51y//J7CAwnYwKzoEACIAACFSMQJ/2yEYeyfuTlAOc0uiTbansG6X0/KTTP7rlJr4R+JuUT6ToXe0p671SekHX2ZVlQTliO2zx38osXdVd6yVXBKZe0oVtEAABEACB4gkkjss5yhac+0lkKnMdO0rFO1vlNZbvP+4o50LJVpikr9GSj4clNYOs1bt19Vf55uLXUm3k9FGfatuYfb1XeghMvSILuyAAAiAAAiUTSHeGfsg/tneXbKDYijq9KbbZ+kSx1YJQPp0w71SkHpRqC29wcFj73MOXSOkFXoezLOQcySwLpJsh727kPL87zE8qV0b4yJCuH8Yfjrima02O0iJ8XzqqKW2EH9f8XbPVX52R4cfyQ9KB/wChgSAAAiAAAgURaN8wcZgRCj+mEcmMrim1xbEGXpleFBspyMEAFYp2Z4/RDZNzm5JQIny1fdQePWyka1Z/gDBWtCnxHvtrmq5/XMoJ27Y/MdBl/pfbeu4HpqmHQ3Hnte/UdOLExXQCf6EcXJjTnLuOtEc4fcV9jmX/d3pR+PeF1UMpEAABEACBoBLouM2+SSn9fLH2kXNN3znGSjE9HwlxYLOZAxu5RPiOc1tfp7HARwiq2pW27rH9TL3uzxx3NUo0hBfO/aN/e//h2ooOVzM7uBaYRjeOdOhm/bkM5LMckLaXD0U9rilnXV/mma9qSw/NlG8PFkAABEAABKqNQEtqaE6Ymv/CvysxGd/VxEQmc+T2JfXPyOj5R6Wpe2es0WjMs54j4xVvRGtbr093hR+R0Qu+Ct9crOSbi6ulWkrkXN17jnGFm3plzzHNf2nEU/ZaPdTwN430i90JSvNNpKP4icJtsbpDnomnrM9qyWTZvroJDrZAAARAAAS8J7At0bpdsx3BEUyqi0QiN3rfMv8p5B+rK0etkvOMDDJ3zVWUkwy4Ut/YlpslsywoRRc0d48f6CbWsoK9+Gbro3wny8PG+nkcSHqyGwCnJpibD1Dj8654qKU78yo3Gw9bIAACIAAC/ifQ9+NvfVEpJTaqxr87p7Wncif6n4z7Hvb3PrGBd9/iUVOZg9NHzY92W2fKqNWAiniWBaqPmJEb3CRb2qP81JaGDor3KE3/pJvOzGxLZfhu7rz+TqNn5rIoAQIgAAIgEBQC0Z7cfF03fyrXHvVo373ffJ1255m2nKY/lPJ5Rg0yfiDmDS+C7ht9/giNgyoxzYALxTc7P+EBwxOkmuk41gmcSeNBN/SKHjHNr7KPUcfP5IPSfHMpQrre3bHZ7tbOuENo5aAbmGEDBEAABECgHAK7fvQc545ybBRXl14TO/k0uYVAxTnnaemBhHk3p4/idF1CB9HLY43zLhBSqwkZJ2fxk2xeVC50EBnr3IrLigpMW1LjBxiR+gf5McexQm2dVIaD4s7YKaffriUfMCctgJMgAAIgAAKBI5CxspwIXomNqhHRqua125oDB7KABtlOjvdEV7kCirpShOOKi1rXj73MFWMwou3KbKTUF6RQ8N/KMfGTTj3bDb2CA9Om9TujEYrcy6OWh7ghXK4N/hCfHu+Y/59YFFUuSdQHARAAgeogMLy4/u9EirfQFDqIopGG2VcKqflKZjAReYLzjG8Uc4pTHIXqI9eL6dWA0KgzdjnfXGwXa6qhr84viC9Xr7DAdP2Tkcb6xu/md2soV9DV+pxItqPj8pr80nCVI4yBAAiAQJUQ6B1OX88B03Ni7hItaktlDhfT85FQZmzHVcw6LeaSoo/FNubeLKYXcKEKZFmIRWhO2amjCgpMY5GDb9YU/Zsf+1DpdHl+orYffYNPIAACIAACLhPgZN625nBqQqmDQgaF1kip+UlneFnLMGdDKDvQKLxN/EA4bNyCJ6GFE5upZD89civ34Z9nKufWdU4ftTi/Y1s59mYMTGPduXfyR2VhOSLe1uUpt5r++VmpHS4k9ffWU1gHARAAARAonwAvzvkGP6J8qHxLhVngqWPvrtUBkP7777qNWT9aGCkXSik6riO+8lMuWIKJPIHEcTmlnOViMPK3FuFwWTdy0wem/AhfM4xbeV5paWmlpEgQdTTojZ+TkoMOCIAACIBARQnwlkHWuRwwOVJemKSv0ZKPh6X0fKPD6bJsZfNCKLnDMfRr269Pz5JTDLZSutP8H94+9B65VtJ7o5usd5eqN23A2ZGyL1SkV9FkZGWVCgL1QAAEQKCKCCj2dYz/Pc8/OA/zo7ofpLc+930tedBEFbWhbFd518Ev8gYvZ5VtqEADynHO5zzaZY0GFSjlu2Kxzc43eeT4NDHHlHpakbZDTC/gQhzstfIg4wFyzVRP9KnfvTo/Ylus5tSBKSfRj2sdf+PB0mixRlEeBEAABEBAmoDqcxx1Tfr+uzbVSlL49tToXJ3q/8wBk9Domto+ao8ell9UIt27ldabc+v4QbxX6x85uKmrtC/QrxICylnWl+D8pkUeUz7K79DiZyEoLZImioMACIBAxQhQXNf19Zzj+Sf5jVAq5oag8ECicavOwbicJM1ppIbVcnr+Udq+pP4ZXqFfk6PF/umFavOErsynGi3W6ykDU4fos8UaQ3kQAAEQAIHKEuDRw7cY4fqHmjeMv7yynsio92af5hEZ9ZSMGqvodHa0O3uMmJ6PhBxr8HMcnG7xkUtwxc8EiJqb6hpWFevipIFp28bMEfzl9tpijaE8CIAACICADwjwFo+RUOSe6Mb+Jh94460LSw/NWDz301uR3a2TQaZZ9OPJ3S1U6+v0otiIIslUXdVKCn6/SIDz358T68m+5sX3hfw/aWAaMswPFFIZZUAABEAABHxKgOgICrfd4FPvXHVrsNP8Lo/k3e+q0WmMkaL50ZR1xjRFAnupf4H5Nc1RvwxsA9EwlwnwjZxuri3G6KSBKSetn1+MEZQFARAAARDwHwEOoBbkn4D5zzP3Pcrlcvn0UWKZWXTSb9DWPFfvfkt8b1FZZJ3HrPOZIXCAQAEE6MT2TVbBA56TBqaa0rAlWAGoUQQEQAAE/E2ADDNkcsAW/GNoceRxTpuVkmspHRhrnHeBnJ5/lAYT4V9xmrKv+scjeOJ3AkZIv7xQH/cJTBvXjcR5NX5zoQZQDgRAAARAwMcEiE6vlS0ex3OjV/JI3pBUb/BajIta14+9TErPTzpOZuISZj3iJ5/gi48J8I5eLZsyry7Ew30D00jkFYVURBkQAAEQAIEqIKCorbX9kpp4nL9z8exBUoqDU6GDqDEUjlwnpOYrmYEljVv4aT52XPRVr/jbmYhuvrsQD/cJTG0i7DlfCDmUAQEQAIEqIWAaxmFV4mrZbvZufbCHR/IeL9tQoQZ0+vfYxlxNTn/r2/rsGmb9TKGoUK62CfCk5GMLIbBPYEpKC356kULIoAwIgAAIBIQAf9HPCUhTZm5G8kQr50ju7U5EId7dJpnc5/d0ZmervARvgatsZ0WVtwLuCxHghfX7FSK1zx+STppRSEWUAQEQAAEQqA4CvOd4TX2vD3WG7uWRvO/K9Q69viO+8lNyev5R6u8y72LWD/jHI3jiVwKkaeFCfNsnMOVKmMxcCDmUAQEQAIEqIWCTNl4lrrrmppPL8op5lXHN4AyGHEO/tv369KwZigXysnKsZczaDmTj0Cj3CChtRyHG9glMbU1tL6QiyoAACIAACFQJAVs9XyWeuuZmelHdXzml0S2uGZzBEK/Qn2s0t146Q7FAXu7vDD9KmrotkI1Do9wjQOqvhRjbJzC1ctbThVREGRAAARAAgWogoGwrM/JoNXjqto/WxPA1vHK81227U9ojWhZLTRwy5fUAXxiZGLuCWQ8HuIloWpkElKMeKsTEPoHp9ge//6zk449CnEQZEAABEACB0ggoR3toeFlLTQYMQ0vbdjjKERzFpAhR+KbSeqq6a40snZXWSCWruxXw3jsCKjNujd1diP19AlPtzjNtjbTfFVIZZUAABEAABPxOwPm83z300r907+ovc8D0sJcae9qmD7X15E7e81xtvOtTj2ziUdM/1UZr0cpiCChSt+fzDBdSZ9/ANF9LqQcLqYwyIAACIAACfiagnuin33/Dzx567lsy6SjLFt3b3dSNtVryAdPztvlNIHFczlH2cr+5BX8qTUCNZyayVxXqxaSBqa2cHxVqAOVAAARAAAT8SIAzTFr2Ao2DBT96J+lTf1fof3nE5XY5TTq6Y+78hJyef5TSnaEfMuuCHtn6x2t44iUBR6mLty+pL3gjhkkD04Gt1/yUR023eOkobIMACIAACHhHwHHUsvTC0M+8U6guy7lc5iIOmMakvOZk4lfNXrO9VUrPTzp2NrucY4isn3yCLxUi4Di3pRPG+mLUJw1MeQcLh9Ns/FcxhlAWBEAABEDADwR4pFQ556Y7jVv94I1ffBha1PAc/65dL+aPorb6pqakmJ6PhAYW1/2FdIXPn4/6pCKuOM4tfb1XdxarzYn4Jz9a14+9LBSpe0rjJYaTl8BZEAABEAABPxHgwOtJfnx/zsDC0E/95JdvfFnzXH28ab8nNI0OkPFJWbls7rVDiyOPy+j5R6UlNTQnTM1/YdYx/3gFT0QI8BN34pvj3k7zm6XoTT5iypaGljb8g1cyfrUUo6gDAiAAAiAgRUApfkT9a95455z+iaeORlA6Dffl+487jnPhNCVcvkRmKBxa67LRqjC3LdG6XbOdlVXhLJx0gcAL30NKOQv7tv79kFKD0rwjU46Y5i+2p0bn6lT/Z97Rwv/brDnql5ZjX573G8fUBAxD/xCRvmjqEm5fUffyXKP/cdsq7IFATRPgbXY0W405pD0/NjHx29HzmvpqmkdxjadYj/NT0umtxVUrvbRt2R8cWGh+r3QLVVrzjDuM2NtP/w0RHSPXAucL/Nfxf3J6NayU/x5SapQXN/1DszO/Ty9qcmUzi2kD0zzu2Gb7AtL0G/2NXllOznp9elH49/72s8LepbY0xLWOJ3h6xv4invAH1nImXjnY1VBz2yGK8IUICIBASQTaU9ljDTJ/w2MzUz41LMnwFJWUUn/t3/qno7TkUTW3ICjak5uv66bY1BLeXehn/Z36CdwV/CQBRzUSmPGPsv/eu/gxRGHbSFUKAP/Rr0JQOjP9Dj1+sVhQmndHqesQlM7cLygBAiAgS2AgEf4dT1X7opQqjxi+omPu4edK6flJh9NHPag5zh1SPuVHwqM91plSetBxn8CMgWl+J6hcbuKjHGSk3Zcv3yLfHf2o/767ri3fUrAtNG8Yf7lSdIFcK9Xf+sa23CynByUQAAEQKJzAqDV2Gd89by+8RnkllUYrG9eNxMuzUp21M1aW5/WqcSnvdV2/QeOFblJ60HGXwMyBKevtSrPh2B/mD9aEu/LlWlN/zDg7PrZrG9VyTQW8fsQM38CPrcT+UDldzYUaLzQIOFY0DwRAoEoJjHTN6ucJcqvF3Cea3dRQX5ODKMOL6/9OpG4SY81ZF2JN81bI6UHJTQIFBaZ5wfzOGbwj1OkcnGbcdKB0W+opOzN+yvaFzdtKt1EbNfNzfDRdF3y0oX6aTph31gZdtBIEQKBaCfRveWI9r9/glEZSB/1H+6bs66TU/KTTO5y+nm8E/iHlEy/avqh145jMegqpRtWITsGBaZ7HQMK8O+fY7+cP187K8lGPcVA6f2BJI3anmqkjeFUkkbFupmLuXefk3jmL96XGAQIgAAI+J8CLkfgb63w5L4nXAZn57+MZFx7L+SSktKKDV287vPuW1EENoVBEbkMFqWbVgE5RgWmex1Bn6N6cyh2fX2VYGT7qO/a2weMRlBZGP37SqWeLpupQ6gtYiFZY36AUCIBA5Qn0dZk/yK9VkPKER/LeEt9sfURKz086PLj1DX7q+pCcT/TRWHfueDk9KLlBoOjANC+6LRF5LKcNH6fI+TJ/yGRSMuzKleWc27dAP3XgomiFR2zdQO+9jfzOG5qhy82h4oUEo84Ycsl637VQAAEQcJGAbeeW8W9ZzkWT05tSvDiH0/dNXyiQV3krrPwTNeXItI6HZUx+YphMlhTryPgIlb0JlNxZ+V0d+s8x/sO27ZP4Q/bY3obdfM9TB76Z1TJHphPGerYrEwi72YAK2YroczhIlNsOjkcdVuUXFFSouZAFARAAgZIIDC6K/Elz1KaSKpdSiXNJd2hxXqlee8fgovBv+LfiK2ItV3RctGPlp8X0IFQ2gZID0xeVB7pCP+m795u8q4P9MX68/8iL58v/nz+6HJBadu6N/Qv0M7Yl6p8t32btWGjfMHGYcmiJVIu57//cT4/cKqUHHRAAARBwk8CEs/MqHvcYcNPmdLYU0YqW1PgB05UJ6jWHJi6VXKuik35t+/Vp/+9gGdQOL7JdZQemu/Q412nfAvP2/oT+upyV+zeNnPX8hL+EhUkc3mjq9zzKf0nGzhySD0gHu8K/LrJNKM4EjHB4DSfTD0vB4P1xl2uJ4+QehUk1DDogAAI1QSCf4YV/ga6Qayw1hClck4tzBhKNW3VHXSPGmqhDb2ldKaYHobIIeLoyMD9qR6Z5vKHRkXx3+Epehxhnb5v4X4QfyI8q0nZybrO/k6391dHUo2PZ8Z+NLJ3ly0T+ZVEWrszpod7FSz/vkZLlm4l7+CbiPVJ60AEBEAABTwhwFpP4Kafzkz862hP7+xjlW3plz08nQj/f51LQT6x/MhKvO+RxZn2ITFNVxsllX5VeVFehhdsyrQyCiqeBaRAAVV0bUg+H4tqxj/Jo6REyvqucpXKvHkxEnpDRgwoIgAAIeEegPZU70SDzx94p7GmZb+x/179l1et5gY7QgqA99Sv5LpayPsTpDL8t54P6Li+g/pCcHpRKIeDOo/xSlFHHEwJx7ZhFckEpN0GpjQhKPelKGAUBEKgAgYFE6AF+pP8tKWlOH3VsvGPlWVJ6ftLpT5jf4d+Q++V8og+29uROkdODUikEEJiWQs2ndZrW74zyY5ErxdxTKp0Z28ELBnCAAAiAQHAIZLKZC/iuW24Lbl2/pnX94OzgECy8JVltV6ouq/Aa5ZUM6cZaLfmAWZ4V1PaSAAJTL+kK226qa1jFo6XNUrK2pi4fXtYyLKUHHRAAARCQILB9Sf0znD5qrYTWCxoUNyPNNbk4J58XnUeoU4Ksj+qYO79TTg9KxRJAYFosMZ+Wj/VkX6M0OkfOPfXowH13fV5OD0ogAAIgIEfAsQevLS27TGk+8iP9c6M9E4eWVru6a43nRvlJnxqSagUvxr5q9prtrVJ60CmOAALT4nj5tjTpJt/dkyHlIG+scJ7GacKk9KADAiAAApIE0otiI7xm/hIxTU7vp1P4ZjE9HwntXDx70HFUUs4laq1vasI0NDngRSkhMC0Klz8Lx7qt0zgoPVHKO15Feld+YwUpPeiAAAiAQCUI9HeaX+WRPLlc2kTvj6Vy76hEWyutme59sJtZc/ooqYM6WzdkjpJSg07hBBCYFs7KnyWTz9SRod8o55yayGQyK+T0oAQCIAACFSPA+fCsczlgEtsKm9Mn1ebinOSJVs6xl8n1NJmhcEhwHrFcy6pdCYFplfdgfO4By3m09CCxZpC6edfCADFBCIEACIBA5QgMLQz/kuPS/5LzgI6Mzp2/UE7PP0pDnaF7+Sbge3Ie0SltPdYH5fSgVAgBBKaFUPJpmfZbR+fxKny5OVCaer5vOP05n+KAWyAAAiDgCQHLyVzMwemoJ8YnMaoTJWdt2NE2yaXAn+Ldmc5n1lmphhqk36TxLlRSetCZmQAC05kZ+baEGam7jkdL81u8ihxK44UAKzrEvpxFGgUREAABEJiBwGBXw/M8kid4U04t9WbjqhncCuTl/JahvI7hFqnGEdErOiIH83QNHH4hgMDULz1RpB9tqewbOT3UJ4qsVnpxR/2yf4H5tdINoCYIgAAIVC+BvtEtazg4/ZtUC0inBS2pzNFSen7SsTLDq5l1n5RPDtHK6MaRDik96ExPAIHp9Hz8epVMMvmOkkjGQaUslV8AoIktAJBpF1RAAARAoEACy/cfJ8cRXPhJZlirzcU5Q0vbdjiac2mBPVN2Mc4hO0s3668t2xAMuEIAgakrGGWNxDZbPFJKb5RS5ccqXx3sCsulTJFqGHRAAARAoAgCvZ3mN/n+/CdFVCmvKNHJnA7ww+UZqc7a6S2r/5Pnmv5WzHuiT7f3ZI8T04PQlAQQmE6Jxp8Xohv7m0jpPLdU6lAjTmZCcIGVVLugAwIgAALFE1COdR4Hp2Kbi+xKB1iLi3OSScfReCMXjk6L76VSapCu6+Y6rin0JLIUH2ujDgLTKutn3Wy7hJ/gz5Ny29HUtQNLGrdI6UEHBEAABPxMoL8z/CgHS4LbMdMh8cjBy/zMxCvf0onQz5n17V7Z39suP9I/vr3H+uje5/FelgACU1neZanNuXX8IA5KOW+p1KGeSW95FgmIpXBDBwRAoCoIjE6MXc4DecNSzvLe7pe2p0bnSun5SSeXy1zEwemYlE+cPup6LbWlQUoPOvsSQGC6LxPfnolEIrzDE9VJOagc5wItedCElB50QAAEQKAaCIwsnZXmYGmVlK+7FufodYLpqqRaNrPO0KKG55RSN8xc0qUSRPt3qDgHwzgqRQCBaaXIF6nbnsqdyF9OpxVZrYzi6gHeJ/pbZRhAVRAAARAILIE+7ZENHJw+IdVAUvTJtu7sG6T0/KTTr/XxoIx6VsonpdOKltT4AVJ60NmTAALTPXn4890ZdxhGfv9ksUPZWZVDwmEx3hACARCoOgKJ43KO5QhOrSLdNGt0cU5iHj/KdwRHMak+rIXlRmmr7sPvrcMITL3l64r12MmnncOP8F/jirECjChSm7clIo8VUBRFQAAEQKBmCaQXmvfwSN7/iAFQ9G/t3da/i+n5SKhvgfnfnLqQF0MJHURnRjfl3iqkBpndCCAw3Q2GH182r93WzFumrZLzTW0bd0avkNODEgiAAAhULwHbyvKoqcpJtcAweHHOjb2NUno+0lHOro1elCPjE//ymsY6LZlEnCQD/CUVAH8JhT9fROpnJ3klflTOO3XVzsTsATk9KIEACIBA9RIYWFj3Z9LUrXItoP3ic6IXy+n5R2kgEf4d3wR8ScojXtdxbHzuyrOl9KDzAgEEpj7+JLRtzByh6bRQzEWl/tSnHtkkpgchEAABEAgAgYnRHVdz+iheqS910PnN3eMHSqn5SWdkbPwyZr1DzCfSr2lJDc0R04OQhsDUxx8CIxxaw3NLQ1IuKsdepvGEfik96IAACIBAEAgML2sZtjW1Uq4tVB8xIzW5OGf0vKY+HqFeLcg6FlFzBPtWrmV+VUJg6tOeaU9Z7+X0IO8Sc89RP+jvCv1ITA9CIAACIBAgAgP33fUFXpzze7EmKTqjfVPuBDE9Hwn1bn3iFmb9pJRLvMHB0vYNE4dJ6dW6DgJTP34Cko+HTdJ5tFToUCrLE/jPF1KDDAiAAAgEj8CdZ9qOld/bXe7Q84tzOJ2gnKJPlJJHZR3HkfvNIgobZvhmn7Q+8G4gMPVhF7fPPXyJ0kjs7ox0devA4rq/+BAFXAIBEACBqiEwsDD0U43UnVIO8+Kc17a//bTPSOn5SWeg0/w+L9OXe8qn0/ti3bl3+olBUH1BYOqznm3q3hkziC6Xc0v1Z5ztV8vpQQkEQAAEgksgY2Uu5JXj41It5N+Lq2t1cY6l5fKpuiwp1qTzRjeph8XWfUi1y286CEx91iON1MCTukluBaByLtuWaN3uMwxwBwRAAASqksBwV/3fOFgSfOxLsQjNqcnc00OdkT/yCLVcJhmiI6LaMV1V+cGsIqcRmPqos6Ld2WM4PdTZUi4ppR7pu+9bYjnhpNoFHRAAARCoJIG+7enrODh9XsoHnvq1pH3TxCul9PykM5Hbybm+1aCUTzpRclZqR7uUXi3qIDD1Ua/Trn2QSWgiO4eltn2uxhP2fYQAroAACIBA9RNY0TFq26J7u4d4cY7cglkf9dD2hc3byFaCI8bUUq83rvIRgsC5gsDUJ10a7bbO5PRQ88XccdSd6YWhn4npQQgEQAAEaojAQJf5dR7J+4Vck+k90U3Wu+X0/KPU2/vgZh6hfkzKI/6tXtCSyhwtpVdrOghM/dDja56r13VdMFmyGs9SdoUfmg4fQAAEQCCgBJRlWZw+Smpvd03TTU4zWIuLc5InWlZ+gxixg4ywCq0Tk6sxIQSmPujwWNO8FRrRy6VcIUfduC1R/6yUHnRAAARAoBYJDHaFf61IfVWu7XR4XDtmsZyef5QGO0P3a476tphHOp0U67Y+LKZXQ0IITCvc2a0bx/bnXHQXibmh1HO91He9mB6EQAAEQKCGCTjOxCW8S9FOOQR0RdP6nVE5Pf8oqV1PAlVGyiPS9Zu09U9GpPRqRQeBaYV7OhSO8OpNapByw9aci7XEvDEpPeiAAAiAQC0TGEg0biWlrhVjQNTcWNdQk7mp+xN1T2lKrRVkfXC07mDOpYrDTQIITN2kWaSt2MbcmzVFHyuyWhnF1UMDCfMbZRhAVRAAARAAgSIJ9GWe5mBJPVVktTKK02djPdnXlGGgaqvaw0PX8gj1VqkG6Bpd2n7r6DwpvVrQQWBaqV5OJnXeffcWHi0lGReUwxs5n8taSkYPKiAAAiAAArsILD00o2xHcMEpGaSbNbk4Z+Ci6E5dOZfIffKoSa+rkxsRl2tYxZQQmFYIfbRj5ad5tPQ4MXmlvjzQGX5YTA9CIAACIAACLxHo7zK/zY+Z73/phOcv6G0dPdbpnsv4UKB362pecKZ+LeUap4/6VFt39g1SekHXQWBagR5uvz49Sydd7A4rP/HescYvrUBTIQkCIAACIPBPAlktxymN5PZ2V7p+o8bpCGuuA5JJJ+fY+VRdQk8IiUwy+QmoJvQENNg9isC0Av1rtLRexk/wO6SkdUddk17U1CulBx0QAAEQAIF9CWxLRB5TjuJk8FIHHRhvnFeTi3OGOkO/4PRRX5cizduJvynWY31cTC/AQghMhTs3lpo4hG+q+E5O6lBP9Wafrsm5RlKEoQMCIAAChRIYt0Z5+0y1rdDy5ZejS9q6x/Yr3071WbBU5iIeNB2V8pzTR12n3djbKKUXVB0EpsI9SxS+mQNTsbxnluOcr/HEe+FmQg4EQAAEQGASAjsXzx50lEpOcsmbU0SNpp5PS1h7x2BXw/McmAq2nfaLz4leXHuk3W0xAlN3eU5rrbUndwoHpR+ctpCrF9W9g53md101CWMgAAIgAAJlEUhrj3TzqOkfyzJSTGWij7duyr6pmCpBKds3toUHg9Tf5NpD5zd3jx8opxc8JQSmUn2afMAM6cZaKTn+Q7Ry2fxEexwgAAIgAAK+IpA4LqdsW3DuJ1HIrNHFOcv3H3eUc6Fc/1N92IjcKKcXPCUEpkJ92jF3fiePlh4lJMcyqmdoceRxOT0ogQAIgAAIFEqgvyv0I37M/P1Cy5dfjt7Ai3M+Wb6d6rOQTph38m/iT6U8523GT2/flDtBSi9oOghMBXp09prtrYroKgGpf0qoofGRkSvl9KAEAiAAAiBQLAFHZc/n4DRbbL1SyxPpn4tu7G8qtX4113NyVj59lC3VBt001mln3GFI6QVJB4GpQG/WNzVxUEqtAlK7JHhf5it3LJ8zJKUHHRAAARAAgeIJpDvrnuTv6/XF1yyxBtE83WiryZzW6UXh3/NNwBdKJFd0NR41fW3720/7TNEVUUFDYOrxh6B1Q4Yf3xM/xpc61OO9Wx/skVKDDgiAAAiAQOkEstnhq3kkr690C0XW1GnZnFvHDyqyViCKjzpjlzPr7VKNMTRa3bx2W7OUXlB0EJh63JOhcIgXPJHpscxL5nm3i2Va8kTrpRN4AQIgAAIg4FsCQ0vbdmiOc5mcg1QXCUduktPzj9JI16x+3uBglZhHRNFI42zOW4ujGAJUTGGULY5AW4/1QVM3vlNcrXJKq+/2LdA/VI4F1AUBEAABEBAmkEzqsXlX/IYf/x4rpWwr66SBROgBKT3f6KQeDsW0Yx8jolfK+KRypKkvKEfL5xMfcHS1hacU/MXO7PjDrpsSGSeqSgWBqVfdtf7JSCxyyP/xh/8VXknsaVdlnFz2VelFdX/d8zzegQAIgAAI+J1ANJV7i07Gg/yETeh3WT3Wd+83j9HuPFNsQZBf+iDaY71H1427K+uPspXS/qCRute27bsGu8K/rqw//lEX+gPwT4OlPOlI2Rcq0q+X0lOac0P/AuMiKT3ogAAIgAAIuEsgvtn+hqbpH3XX6tTWlHIW9icMTvZfe0dss/M/PEL9bt+0XKk/8cjqxl6t70taYt6Yb/yqgCOYY+oB9OjGkQ6HaKUHpic3qVSvs21o9eQXcRYEQAAEQKAaCGRVlgcXlFhQwk/0Vs3ZNNxSDWzc9tFWOd7gQOXctluyPaIjeDBrQ1zreCqesj5by6mmEJiW/CmauqJu1l/Ld2Kzpi7h7hXe1eLSgYuiO921CmsgAAIgAAKSBLYl6p/l9FGCuwZRe50+qyZzXg8mIk/wXM+Nkv1bkBZRh0bGbbFTTv91a0/myILqBKwQAlOXO7S9J3scTxH6tMtmpzZH6uF07+ovT10AV0AABEAABKqFAD/KvYEDpufE/NVpYdvGzBFiej4SyoztuIpZp33k0kuu5BfChfTQw7EeWzDd5EvyFX2BwNRd/KTr5jqevC7EVSll2edpyaTjbjNgDQRAAARAoCIEeH6hrRzB9QIUMox8WsPaO4aXtQzbmuLcpn49qJ6Diu74bfYttfRoXyiA8munu+tXe4/1Ub7LOd5dq9NZU7fzfsv/O10JXAMBEAABEKguAgOd5u1KUz+X8pp0eme823qflJ6fdAbuu+vzPNf0UT/5tI8vSl8af8fp39CSD4jlRN/HB8ETCEzdgp3a0mAIrsLPT5DP5TKCd9VugYIdEAABEACBGQgox9q1t7vY0zAy9Ju15OPhGfwK3mVOl8XHeb5vmKIzOubN/yI/IQ183IZ0US59Gjt67KuUrgvu8KD+yHNjvueS+zADAiAAAiDgMwKK6BP8FO5lUm5x2sEVnHawJneF4vRR32TWp0mxLlWHU3wlOcXXVaXWr4Z6CExd6KWW1PgBYeIVfhrVu2AOJkAABEAABECgAgTU9lF79LD81p0VEK+o5Jxbxw+qi0T+yL/jdRV1ZEZx5TiW8770QvOeGYtWaYHADwlL9EtYC9+AoFSCNDRAAARAAAS8I0BzGs2Ga7yz71/L25fUP8O7MN3sXw9f9IyXQxn655vXbmt+8UzQ/kdgWmaPRjfl3srpoc4s0wyqgwAIgAAIgEDlCSg6K9ozcWjlHZH3YCwzytkJlP+3aCWaF6mfzQNiwTwQmJbTrzwJmQzjFh4txZSIcjiiLgiAAAiAgE8I8DIoPXSxT5wRdaM+3HgW/54boqKliun0mdYNmaNKre7neghMy+id+NyVZ/OWbseUYQJVQQAEQAAEQMBnBPgpIGea8ZlT3rrD7SVFF3or4qZ10s1wKJCLoBCYlvg5iW7sb+I8+tifvkR+qAYCIAACIOBXAtQU02Lv8Kt3XvgVU/FP8cPPqBe2vbLJj2o/3Nw9fqBX9itlF4FpieQNo20RD/nHS6yOaiAAAiAAAiDgWwK6ktwsxgcYdDrHB14U6QLpETP82SIr+b44AtPSuoiUTonSqqIWCIAACIAACPibgNLocH976J53banM4fm96d2zKGhJ0ccF1USkEJiWgDnanX0tj5YeVEJVVAEBEAABEAAB/xPQtap6rF0O0JBmvr+c+pWtSwcGbREUAtMSPlFExhtLqIYqIAACIAACIFAtBGomPnB0OqlaOmUyP0Mh85TJzlfruZr54LnaQbqG0VJXgcIYCIAACICAzwgM+8wfz9whpb3BM+Myhl8nIyOjgsC0BM4MbXYJ1VAFBEAABEAABKqEgHq6Shwty832W0fn8dS81rKMVLoy0Wsq7YKb+ghMS6CpHC1TQjVUAQEQAAEQAIGqIOBo6tdV4WiZTnIy0CA8AT2gTAy+qo7AtITuUJr2bAnVUAUEQAAEQAAEqoCAssfGJu6uAkddcJFiLhipsAmaoyWfqauwE67JIzAtAaXjOL8toRqqgAAIgAAIgIDvCfBTwftGz2vq872jLjjIG5BGXDBTcRNNre2zKu6ESw4gMC0B5ED/X36haWqohKqoAgIgAAIgAAK+JuCQfb2vHXTROdvWDBfNVcwU6Xw7EZADgWkpHZk8Kqsp9ZVSqqIOCIAACIAACPiXgLpvIBF6wL/+ueuZScFYM2KGLMtdMpWzhsC0RPaWk7mJR01HSqyOaiAAAiAAAiDgMwJqZCKTWeAzpzx1x9ZUv6cCIsZVbluidYeIlIAIAtMSIQ92NTzPgenKEqujGgiAAAiAAAj4iIDidb3OOduX1D/jI6e8d8W2t3gv4rGC0p5jBe6/YBwITMvox74Fxnr+Q769DBOoCgIgAAIgAAIVJ6A0dWHfArPmfs/SP/neMzw1b7TiHVCOA6T9qZzqfquLwLS8HlF9W574tOY4d5RnBrVBAARAAARAoAIElMpqjv3Z/gUGT0+rwePOM21N1/5QzS0nUr+rZv/39h2B6d5Ein3PC6H6eq/+GDnOxTySjsT7xfJDeRAAARAAgQoRUL92LOuNfZ3mFyrkgD9kHfVTfzhSmhc526lq//duNe19Au9LJxDdOPEKCodWkqKP8BZngUl2WzoR1AQBEAABEPAXgfxcUu1BZTu39HeZ3+HXgZmbWCrnaCr3Fp3Mn5Vav5L1eArGzv6Jp6La0kMDMzCGwNSDT1RLamhORM0+Rel0nOZoB2k6NSnihwU4QAAEQAAEQECQADlajmPP7Rppzzu2+p3SMz8bSDRuFXTB/1LJB8z43BP+rhHN87+ze3monK/1JYxP7nW2qt8iMK3q7oPzIAACIAACIAAC5RKIb7av1jS96jLt2Mo6KWh5ZzGKV+6nGfVBAARAAARAAASqmkBWZW/j1fnZqmqEUn/goPQnVeVzAc4iMC0AEoqAAAiAAAiAAAgEl8C2RP2zSqnPV1MLSTk8yhu8OcIITKvpUwhfQQAEQAAEQAAEPCHg5Cau4TivKnZ05EVPP+/tNO/yBESFjSIwrXAHQB4EQAAEQAAEQKDyBAaWNG5xlLqs8p7M5IHKKdtayqUCmVHBmKn5uA4CIAACIAACIAACtUBg7Dj9N42NJ5xERC/3bXuVuqK/M3Snb/0r0zGsyi8TIKqDAAiAAAiAAAgEh0B7anSuTvW/JY3m+q9V6r6+e7/5Li2/Y1VADwSmAe1YNAsEQAAEQAAEQKA0Aq2bsm8KGeZ9nNu0sTQLXtRSf8yMbj9+eFnLsBfW/WITgalfegJ+gAAIgAAIgAAI+IZA26bc203T+L4fdnLkjAF/zWmZk/PZA3wDyCNHsPjJI7AwCwIgAAIgAAIgUL0EBheG7rMc+32c37TCI5TqMWWNvbUWgtL8pwWBafX+zcBzEAABEAABEAABDwkMdobuz6nc8fkRSw9lpjTNaaG+aW8bPD69qKl3ykIBu4BH+QHrUDQHBEAABEAABEDAXQLt16dnGS2t63g872x3LU9lTY2QUpf0JoyNXCKQaaGmajkC06nI4DwIgAAIgAAIgAAI7EagrSd3sknGGl4U9erdTrv4ksdmlfZtnk+6rFYe3e8ND4Hp3kTwHgRAAARAAARAAASmInDGHUbs5FM/Trp+IS+MOmqqYsWdV/n0T3fblrVqYGH4t8XVDVZpBKbB6k+0BgRAAARAAARAQIYARTfl3qIb+ic4QP0Aj6J2FCebHxzVHtUd9b0JK/vF4cX1fy+ufjBLIzANZr+iVSAAAiAAAiAAAlIEkkm9JXbJqwzj/7djxyYAAkEQAP/kE7EAGzA3tSMrtQAjSxDBBgTxfZswmuDiXSZaLk9NSWM0MdTovo6stq7PXCJ9H9Hju0hli6esd1zLOXf7XxXlECBAgAABAgQIECBAgAABAgQIECBAgAABAgQIECBAgAABAgQIECBAgAABAgQIECBAgAABAgQIECBAgAABAgQIECBAgAABAgQIECBAgAABAgQIECBAgAABAgQIECBAgAABAgQIECBAgAABAgQIECBAgAABAgQIECBAgAABAgQIECBAgAABAgQIECBAgAABAgQIECBAgAABAgQIECBAgAABAgQIECBAgAABAgQIECBAgAABAgQIECBAgAABAgQI8INxCQAAAwhJREFUECBAgAABAgQIECBAgAABAgQIECBAgAABAgQIECBAgAABAgQIECBAgAABAgQIECBAgAABAgQIECBAgAABAgQIECBAgAABAgQIECBAgAABAgQIECBAgAABAgQIECBAgAABAgQIECBAgAABAgQIECBAgAABAgQIECBAgAABAgQIECBAgAABAgQIECBAgAABAgQIECBAgAABAgQIECBAgAABAgQIECBAgAABAgQIECBAgAABAgQIECBAgAABAgQIECBAgAABAgQIECBAgAABAgQIECBAgAABAgQIECBAgAABAgQIECBAgAABAgQIECBAgAABAgQIECBAgAABAgQIECBAgAABAgQIECBAgAABAgQIECBAgAABAgQIECBAgAABAgQIECBAgAABAgQIECBAgAABAgQIECBAgAABAgQIECBAgAABAgQIECBAgAABAgQIECBAgAABAgQIECBAgAABAgQIECBAgAABAgQIECBAgAABAgQIECBAgAABAgQIECBAgAABAgQIECBAgAABAgQIECBAgAABAgQIECBAgAABAgQIECBAgAABAgQIECBAgAABAgQIECBAgAABAgQIECBAgAABAgQIECBAgAABAgQIECBAgAABAgQIECBAgAABAgQIECBAgAABAgQIECBAgAABAgQIECBAgAABAgQIECBAgAABAgQIECBAgAABAgQIECBAgAABAgQIECBAgAABAgQIECBAgAABAgQIECBAgAABAgQIECBAgAABAgQIECBAgAABAgQIECBAgAABAgQIECBAgAABAgQIECBAgAABAgQIECBAgAABAgQIECBAgAABAgQIECBAgAABAgQIECBAgAABAgQIECBAgAABAgQIECBAgAABAgQIECBAgAABAgQIECBAgAABAgQIECBAgAABAgQIECBAgAABAgQIECBAgAABAgQIECBAgAABAgQIECBAgAABAgQIECBAgAABAgQIECBAgAABAgQIECBAgAABAgQIECBAgAABAgQIECBAgAABAgQIECBA4DeBFxMuVATPmZiiAAAAAElFTkSuQmCC;" parent="1" vertex="1">
          <mxGeometry x="60" y="50" width="150" height="150" as="geometry"/>
        </mxCell>
      </root>
    </mxGraphModel>
  </diagram>
</mxfile>
